<svg width="32" height="32" viewBox="0 0 32 32" fill="none" xmlns="http://www.w3.org/2000/svg">
<path fill-rule="evenodd" clip-rule="evenodd" d="M26.0404 7.37361C26.4309 6.98309 26.4309 6.34992 26.0404 5.9594C25.6498 5.56887 25.0167 5.56887 24.6261 5.9594L14.382 16.2036C13.3383 15.4463 12.0546 14.9998 10.6666 14.9998C7.16878 14.9998 4.33325 17.8354 4.33325 21.3332C4.33325 24.831 7.16878 27.6665 10.6666 27.6665C14.1644 27.6665 16.9999 24.831 16.9999 21.3332C16.9999 19.9452 16.5534 18.6614 15.7962 17.6178L19.3333 14.0807L22.6261 17.3736C23.0167 17.7641 23.6498 17.7641 24.0404 17.3736C24.4309 16.9831 24.4309 16.3499 24.0404 15.9594L20.7475 12.6665L22.9999 10.4141L25.9595 13.3736C26.35 13.7641 26.9832 13.7641 27.3737 13.3736C27.7642 12.9831 27.7642 12.3499 27.3737 11.9594L24.4141 8.99984L26.0404 7.37361ZM6.33325 21.3332C6.33325 18.9399 8.27335 16.9998 10.6666 16.9998C13.0598 16.9998 14.9999 18.9399 14.9999 21.3332C14.9999 23.7264 13.0598 25.6665 10.6666 25.6665C8.27335 25.6665 6.33325 23.7264 6.33325 21.3332Z" fill="#FCFCFD"/>
</svg>
