<svg width="32" height="32" viewBox="0 0 32 32" fill="none" xmlns="http://www.w3.org/2000/svg">
<path d="M16.9999 20C16.9999 19.4477 16.5522 19 15.9999 19C15.4476 19 14.9999 19.4477 14.9999 20V22.6667C14.9999 23.219 15.4476 23.6667 15.9999 23.6667C16.5522 23.6667 16.9999 23.219 16.9999 22.6667V20Z" fill="#FCFCFD"/>
<path fill-rule="evenodd" clip-rule="evenodd" d="M6.99992 12C6.99992 7.02944 11.0294 3 15.9999 3C20.9705 3 24.9999 7.02944 24.9999 12V13.6667H25.3333C26.6219 13.6667 27.6666 14.7113 27.6666 16V26.6667C27.6666 27.9553 26.6219 29 25.3333 29H6.66659C5.37792 29 4.33325 27.9553 4.33325 26.6667V16C4.33325 14.7113 5.37792 13.6667 6.66659 13.6667H6.99992V12ZM22.9999 12V13.6667H8.99992V12C8.99992 8.13401 12.1339 5 15.9999 5C19.8659 5 22.9999 8.13401 22.9999 12ZM6.66659 15.6667H25.3333C25.5173 15.6667 25.6666 15.8159 25.6666 16V26.6667C25.6666 26.8508 25.5173 27 25.3333 27H6.66659C6.48249 27 6.33325 26.8508 6.33325 26.6667V16C6.33325 15.8159 6.48249 15.6667 6.66659 15.6667Z" fill="#FCFCFD"/>
</svg>
