<svg xmlns="http://www.w3.org/2000/svg" width="16" height="16" viewBox="0 0 16 16" fill="none">
  <path d="M7.50006 9.33319V5.99985H8.50006V9.33319H7.50006Z" fill="#F76B15"/>
  <path d="M7.50006 11.9999V10.6665H8.50006V11.9999H7.50006Z" fill="#F76B15"/>
  <path fill-rule="evenodd" clip-rule="evenodd" d="M6.9969 3.3767C7.44897 2.61532 8.55115 2.61532 9.00322 3.3767L14.1654 12.0709C14.6272 12.8486 14.0667 13.8332 13.1622 13.8332H2.83789C1.93344 13.8332 1.37297 12.8486 1.83472 12.0709L6.9969 3.3767ZM8.14337 3.88724C8.07879 3.77847 7.92133 3.77847 7.85675 3.88724L2.69458 12.5814C2.62861 12.6925 2.70868 12.8332 2.83789 12.8332H13.1622C13.2914 12.8332 13.3715 12.6925 13.3055 12.5814L8.14337 3.88724Z" fill="#F76B15"/>
</svg>