<svg width="108" height="64" viewBox="0 0 108 64" fill="none" xmlns="http://www.w3.org/2000/svg">
<rect x="0.5" y="0.5" width="107" height="63" rx="4.5" stroke="#9747FF" stroke-dasharray="10 5"/>
<path fill-rule="evenodd" clip-rule="evenodd" d="M31.9998 22.25C32.2853 22.25 32.5461 22.4121 32.6724 22.6681L35.4368 28.2694L41.6183 29.1676C41.9008 29.2087 42.1355 29.4066 42.2237 29.6781C42.3119 29.9496 42.2383 30.2476 42.0339 30.4469L37.561 34.8069L38.6169 40.9634C38.6652 41.2448 38.5495 41.5291 38.3185 41.6969C38.0876 41.8647 37.7814 41.8869 37.5287 41.754L31.9998 38.8473L26.471 41.754C26.2183 41.8869 25.9121 41.8647 25.6812 41.6969C25.4502 41.5291 25.3345 41.2448 25.3828 40.9634L26.4387 34.8069L21.9658 30.4469C21.7613 30.2476 21.6878 29.9496 21.776 29.6781C21.8642 29.4066 22.0989 29.2087 22.3814 29.1676L28.5629 28.2694L31.3273 22.6681C31.4536 22.4121 31.7144 22.25 31.9998 22.25ZM31.9998 24.6947L29.7335 29.2868C29.6242 29.5082 29.413 29.6616 29.1688 29.6971L24.101 30.4335L27.7681 34.008C27.9448 34.1803 28.0255 34.4286 27.9838 34.6719L27.1181 39.7192L31.6508 37.3362C31.8693 37.2213 32.1304 37.2213 32.3489 37.3362L36.8816 39.7192L36.0159 34.6719C35.9742 34.4286 36.0549 34.1803 36.2316 34.008L39.8987 30.4335L34.8309 29.6971C34.5866 29.6616 34.3755 29.5082 34.2662 29.2868L31.9998 24.6947Z" fill="#FCFCFD"/>
<path fill-rule="evenodd" clip-rule="evenodd" d="M75.9998 22.25C76.2853 22.25 76.5461 22.4121 76.6724 22.6681L79.4368 28.2694L85.6183 29.1676C85.9008 29.2087 86.1355 29.4066 86.2237 29.6781C86.3119 29.9496 86.2383 30.2476 86.0339 30.4469L81.561 34.8069L82.6169 40.9634C82.6652 41.2448 82.5495 41.5291 82.3185 41.6969C82.0876 41.8647 81.7814 41.8869 81.5287 41.754L75.9998 38.8473L70.471 41.754C70.2183 41.8869 69.9121 41.8647 69.6812 41.6969C69.4502 41.5291 69.3345 41.2448 69.3828 40.9634L70.4387 34.8069L65.9658 30.4469C65.7613 30.2476 65.6878 29.9496 65.776 29.6781C65.8642 29.4066 66.0989 29.2087 66.3814 29.1676L72.5629 28.2694L75.3273 22.6681C75.4536 22.4121 75.7144 22.25 75.9998 22.25ZM75.9998 24.6947L73.7335 29.2868C73.6242 29.5082 73.413 29.6616 73.1688 29.6971L68.101 30.4335L71.7681 34.008C71.9448 34.1803 72.0255 34.4286 71.9838 34.6719L71.1181 39.7192L75.6508 37.3362C75.8693 37.2213 76.1304 37.2213 76.3489 37.3362L80.8816 39.7192L80.0159 34.6719C79.9742 34.4286 80.0549 34.1803 80.2316 34.008L83.8987 30.4335L78.8309 29.6971C78.5866 29.6616 78.3755 29.5082 78.2662 29.2868L75.9998 24.6947Z" fill="#FCFCFD"/>
<path d="M73.7335 29.2868L75.9998 24.6947L78.2662 29.2868C78.3755 29.5082 78.5866 29.6616 78.8309 29.6971L83.8987 30.4335L80.2316 34.008C80.0549 34.1803 79.9742 34.4286 80.0159 34.6719L80.8816 39.7192L76.3489 37.3362C76.1304 37.2213 75.8693 37.2213 75.6508 37.3362L71.1181 39.7192L71.9838 34.6719C72.0255 34.4286 71.9448 34.1803 71.7681 34.008L68.101 30.4335L73.1688 29.6971C73.413 29.6616 73.6242 29.5082 73.7335 29.2868Z" fill="#FCFCFD"/>
</svg>
