<svg xmlns="http://www.w3.org/2000/svg" width="32" height="32" viewBox="0 0 32 32" fill="none">
  <path d="M23.0467 25.7323L27.3478 21.7323L25.9857 20.2677L22.3657 23.6344L20.6811 22.0677L19.3191 23.5323L21.6847 25.7323C22.0685 26.0892 22.6628 26.0892 23.0467 25.7323Z" fill="white"/>
  <path fill-rule="evenodd" clip-rule="evenodd" d="M22.3334 9.66667C22.3334 12.327 20.9784 14.6708 18.921 16.0457C19.4214 16.2189 19.908 16.4218 20.3786 16.6524C21.2763 16.2338 22.2776 16 23.3334 16C27.1994 16 30.3334 19.134 30.3334 23C30.3334 26.866 27.1994 30 23.3334 30C19.4674 30 16.3334 26.866 16.3334 23C16.3334 21.0395 17.1394 19.2673 18.438 17.9965C17.2625 17.5675 15.9928 17.3333 14.6667 17.3333C8.59162 17.3333 3.66675 22.2582 3.66675 28.3333H1.66675C1.66675 22.6436 5.32194 17.8077 10.4122 16.0455C8.35493 14.6706 7.00008 12.3268 7.00008 9.66667C7.00008 5.43248 10.4326 2 14.6667 2C18.9009 2 22.3334 5.43248 22.3334 9.66667ZM9.00008 9.66667C9.00008 6.53705 11.5371 4 14.6667 4C17.7964 4 20.3334 6.53705 20.3334 9.66667C20.3334 12.7963 17.7964 15.3333 14.6667 15.3333C11.5371 15.3333 9.00008 12.7963 9.00008 9.66667ZM18.3334 23C18.3334 20.2386 20.572 18 23.3334 18C26.0948 18 28.3334 20.2386 28.3334 23C28.3334 25.7614 26.0948 28 23.3334 28C20.572 28 18.3334 25.7614 18.3334 23Z" fill="white"/>
</svg>