<svg width="24" height="24" viewBox="0 0 24 24" fill="none" xmlns="http://www.w3.org/2000/svg">
<path d="M17.4466 3.91317C18.6507 4.72417 19.6685 5.8006 20.4139 7.07373L19.1195 7.83162C18.0858 6.06625 16.4332 4.74786 14.4823 4.13234L14.6378 2.67038L19.2766 2.23468L19.4168 3.72811L17.4466 3.91317Z" fill="#FCFCFD"/>
<path d="M8.5 3.75001C5.87665 3.75001 3.75 5.87666 3.75 8.50001C3.75 10.2891 4.7391 11.8472 6.20031 12.6572C6.08775 13.1664 6.02086 13.6928 6.00415 14.2318C3.79455 13.2683 2.25 11.0645 2.25 8.50001C2.25 5.04823 5.04822 2.25001 8.5 2.25001C11.0645 2.25001 13.2683 3.79456 14.2318 6.00416C13.6928 6.02087 13.1664 6.08776 12.6572 6.20032C11.8471 4.73911 10.2891 3.75001 8.5 3.75001Z" fill="#FCFCFD"/>
<path fill-rule="evenodd" clip-rule="evenodd" d="M14.5 7.25001C10.4959 7.25001 7.25 10.4959 7.25 14.5C7.25 18.5041 10.4959 21.75 14.5 21.75C18.5041 21.75 21.75 18.5041 21.75 14.5C21.75 10.4959 18.5041 7.25001 14.5 7.25001ZM8.75 14.5C8.75 11.3244 11.3244 8.75001 14.5 8.75001C17.6756 8.75001 20.25 11.3244 20.25 14.5C20.25 17.6756 17.6756 20.25 14.5 20.25C11.3244 20.25 8.75 17.6756 8.75 14.5Z" fill="#FCFCFD"/>
<path d="M2.8361 16.1763C3.58151 17.4494 4.59933 18.5258 5.80344 19.3369L3.83316 19.5219L3.97343 21.0153L8.61218 20.5796L8.76771 19.1177C6.8168 18.5022 5.16416 17.1838 4.13055 15.4184L2.8361 16.1763Z" fill="#FCFCFD"/>
</svg>
