<svg width="32" height="32" viewBox="0 0 32 32" fill="none" xmlns="http://www.w3.org/2000/svg">
<path d="M12.6667 25H19.3333V23H12.6667V25Z" fill="white"/>
<path fill-rule="evenodd" clip-rule="evenodd" d="M9.33333 3C8.04467 3 7 4.04467 7 5.33333V26.6667C7 27.9553 8.04467 29 9.33333 29H22.6667C23.9553 29 25 27.9553 25 26.6667V5.33333C25 4.04467 23.9553 3 22.6667 3H9.33333ZM9 5.33333C9 5.14924 9.14924 5 9.33333 5H22.6667C22.8508 5 23 5.14924 23 5.33333V26.6667C23 26.8508 22.8508 27 22.6667 27H9.33333C9.14924 27 9 26.8508 9 26.6667V5.33333Z" fill="white"/>
</svg>
