<svg width="24" height="24" viewBox="0 0 24 24" fill="none" xmlns="http://www.w3.org/2000/svg">
<path d="M11.0284 21.7015C13.434 21.9424 15.8433 21.281 17.7887 19.8456C19.7342 18.4102 21.0769 16.3032 21.5564 13.9336C22.0358 11.5639 21.6178 9.10069 20.3834 7.02191C19.149 4.94314 17.1863 3.39711 14.8762 2.68391C12.5662 1.9707 10.0735 2.14119 7.88211 3.16228C6.54486 3.78536 5.37796 4.69806 4.45791 5.82105V3.8421L2.95791 3.8421L2.95791 8.50126L4.39892 8.79282C5.19418 6.90803 6.66134 5.38592 8.51563 4.52192C10.3699 3.65793 12.4791 3.51367 14.4337 4.11715C16.3884 4.72064 18.0491 6.02881 19.0936 7.78777C20.1381 9.54674 20.4918 11.631 20.0861 13.6361C19.6805 15.6412 18.5443 17.424 16.8982 18.6386C15.252 19.8531 13.2134 20.4128 11.1779 20.2089C9.14235 20.0051 7.25517 19.0522 5.8826 17.5353C4.51004 16.0184 3.75 14.0457 3.75 12H2.25C2.25 14.4177 3.14823 16.7491 4.77035 18.5418C6.39247 20.3345 8.62277 21.4605 11.0284 21.7015Z" fill="#FCFCFD"/>
</svg>
