<svg xmlns="http://www.w3.org/2000/svg" width="24" height="24" viewBox="0 0 24 24" fill="none">
  <path fill-rule="evenodd" clip-rule="evenodd" d="M12 2.25C12.2854 2.25 12.5462 2.41207 12.6725 2.66808L15.4369 8.26941L21.6184 9.16762C21.9009 9.20868 22.1356 9.40656 22.2238 9.67807C22.312 9.94958 22.2385 10.2476 22.034 10.4469L17.5611 14.8069L18.617 20.9634C18.6653 21.2448 18.5496 21.5291 18.3187 21.6969C18.0877 21.8647 17.7815 21.8869 17.5288 21.754L12 18.8473L6.47112 21.754C6.21843 21.8869 5.91223 21.8647 5.68128 21.6969C5.45032 21.5291 5.33465 21.2448 5.38291 20.9634L6.43882 14.8069L1.96589 10.4469C1.76146 10.2476 1.68789 9.94958 1.77611 9.67807C1.86433 9.40656 2.09904 9.20868 2.38155 9.16762L8.56299 8.26941L11.3274 2.66808C11.4538 2.41207 11.7145 2.25 12 2.25ZM12 4.69466L9.73359 9.28684C9.62435 9.5082 9.41317 9.66162 9.16889 9.69712L4.10112 10.4335L7.76819 14.008C7.94496 14.1803 8.02562 14.4286 7.98389 14.6719L7.11821 19.7192L11.651 17.3362C11.8695 17.2213 12.1305 17.2213 12.349 17.3362L16.8817 19.7192L16.016 14.6719C15.9743 14.4286 16.055 14.1803 16.2317 14.008L19.8988 10.4335L14.831 9.69712C14.5868 9.66162 14.3756 9.5082 14.2663 9.28684L12 4.69466Z" fill="#FCFCFD"/>
  <path d="M9.73359 9.28684L12 4.69466L14.2663 9.28684C14.3756 9.5082 14.5868 9.66162 14.831 9.69712L19.8988 10.4335L16.2317 14.008C16.055 14.1803 15.9743 14.4286 16.016 14.6719L16.8817 19.7192L12.349 17.3362C12.1305 17.2213 11.8695 17.2213 11.651 17.3362L7.11821 19.7192L7.98389 14.6719C8.02562 14.4286 7.94496 14.1803 7.76819 14.008L4.10112 10.4335L9.16889 9.69712C9.41317 9.66162 9.62435 9.5082 9.73359 9.28684Z" fill="#FCFCFD"/>
</svg>