<svg width="24" height="24" viewBox="0 0 24 24" fill="none" xmlns="http://www.w3.org/2000/svg">
<path d="M12 3.75C9.2192 3.75 6.94285 5.91244 6.76166 8.64693C6.73925 8.98511 6.49282 9.26624 6.16049 9.33275C4.2153 9.72208 2.75 11.4408 2.75 13.5C2.75 15.8472 4.65279 17.75 7 17.75V19.25C3.82436 19.25 1.25 16.6756 1.25 13.5C1.25 10.9069 2.96589 8.71596 5.32389 7.99833C5.80808 4.74513 8.61238 2.25 12 2.25C15.3876 2.25 18.1919 4.74513 18.6761 7.99834C21.0341 8.71596 22.75 10.9069 22.75 13.5C22.75 16.6756 20.1756 19.25 17 19.25V17.75C19.3472 17.75 21.25 15.8472 21.25 13.5C21.25 11.4408 19.7847 9.72208 17.8395 9.33275C17.5072 9.26624 17.2608 8.98511 17.2383 8.64693C17.0571 5.91244 14.7808 3.75 12 3.75Z" fill="#FCFCFD"/>
<path d="M12.75 16.8546C13.483 16.5579 14 15.8393 14 15C14 13.8954 13.1046 13 12 13C10.8954 13 10 13.8954 10 15C10 15.8393 10.517 16.5579 11.25 16.8546V21H12.75V16.8546Z" fill="#FCFCFD"/>
</svg>
