<svg width="32" height="32" viewBox="0 0 32 32" fill="none" xmlns="http://www.w3.org/2000/svg">
<path d="M21.8799 8.42434C20.2008 7.06546 18.1217 6.3296 15.9829 6.33351C13.8442 6.33742 11.7677 7.08087 10.0933 8.44592C8.41862 9.81128 7.24496 11.7184 6.76876 13.8573C6.29252 15.9963 6.54307 18.2364 7.4781 20.2099C8.41299 22.1832 9.97536 23.7705 11.9057 24.716C13.8356 25.6613 16.0216 25.9105 18.1071 25.4243C20.1928 24.938 22.0586 23.7438 23.397 22.0325C24.5311 20.5825 25.229 18.8345 25.4158 17.0002H16.1999V15.0002H26.4665C26.7318 15.0002 26.9861 15.1055 27.1737 15.2931C27.3612 15.4806 27.4665 15.7349 27.4665 16.0002C27.4665 18.6372 26.5884 21.1985 24.9724 23.2646C23.3561 25.3312 21.0966 26.7809 18.5612 27.3721C16.0256 27.9632 13.3686 27.6596 11.0259 26.5121C8.68369 25.3648 6.79698 23.4435 5.6707 21.0663C4.54455 18.6894 4.24387 15.9949 4.81656 13.4226C5.38928 10.8502 6.80259 8.54835 8.82956 6.8958C10.8569 5.24295 13.3776 4.33827 15.9793 4.33351C18.581 4.32876 21.1048 5.22422 23.138 6.86968L21.8799 8.42434Z" fill="white"/>
</svg>
