<svg width="14" height="14" viewBox="0 0 14 14" fill="none" xmlns="http://www.w3.org/2000/svg">
<path fill-rule="evenodd" clip-rule="evenodd" d="M5.24992 1.3125C4.68613 1.3125 4.22909 1.76954 4.22909 2.33333V3.64583H2.91659C2.35279 3.64583 1.89575 4.10288 1.89575 4.66667V11.6667C1.89575 12.2305 2.35279 12.6875 2.91659 12.6875H8.74992C9.31371 12.6875 9.77075 12.2305 9.77075 11.6667V10.3542H11.0833C11.647 10.3542 12.1041 9.89712 12.1041 9.33333V2.33333C12.1041 1.76954 11.647 1.3125 11.0833 1.3125H5.24992ZM9.77075 9.47917H11.0833C11.1638 9.47917 11.2291 9.41388 11.2291 9.33333V2.33333C11.2291 2.25279 11.1638 2.1875 11.0833 2.1875H5.24992C5.16938 2.1875 5.10409 2.25279 5.10409 2.33333V3.64583H8.74992C9.31371 3.64583 9.77075 4.10288 9.77075 4.66667V9.47917ZM2.77075 4.66667C2.77075 4.58613 2.83604 4.52083 2.91659 4.52083H8.74992C8.83046 4.52083 8.89575 4.58613 8.89575 4.66667V11.6667C8.89575 11.7472 8.83046 11.8125 8.74992 11.8125H2.91659C2.83604 11.8125 2.77075 11.7472 2.77075 11.6667V4.66667Z" fill="#BABBBC"/>
</svg>
