<svg width="32" height="32" viewBox="0 0 32 32" fill="none" xmlns="http://www.w3.org/2000/svg">
<path fill-rule="evenodd" clip-rule="evenodd" d="M3 6.66683C3 5.37816 4.04467 4.3335 5.33333 4.3335H26.6667C27.9553 4.3335 29 5.37816 29 6.66683V25.3335C29 26.6222 27.9553 27.6668 26.6667 27.6668H5.33333C4.04467 27.6668 3 26.6222 3 25.3335V6.66683ZM5.17508 6.37339L15.7785 15.7987C15.9048 15.911 16.0952 15.911 16.2215 15.7987L26.8249 6.37339C26.7778 6.34794 26.7239 6.3335 26.6667 6.3335H5.33333C5.27606 6.3335 5.22216 6.34794 5.17508 6.37339ZM27 8.89367L17.5502 17.2935C16.6661 18.0793 15.3339 18.0793 14.4498 17.2935L5 8.89367V25.3335C5 25.5176 5.14924 25.6668 5.33333 25.6668H26.6667C26.8508 25.6668 27 25.5176 27 25.3335V8.89367Z" fill="white"/>
</svg>
