<svg width="32" height="32" viewBox="0 0 32 32" fill="none" xmlns="http://www.w3.org/2000/svg">
<path d="M23.3737 12.7069L21.9595 11.2927L15.3333 17.919L11.3737 13.9594L9.95948 15.3736L15.3333 20.7474L23.3737 12.7069Z" fill="white"/>
<path fill-rule="evenodd" clip-rule="evenodd" d="M16.2425 1.69636C16.0832 1.65655 15.9166 1.65655 15.7574 1.69636L5.09072 4.36303C4.64555 4.47432 4.33325 4.8743 4.33325 5.33317V17.558C4.33325 20.6585 5.92916 23.5407 8.55703 25.1861L15.4692 29.5141C15.7938 29.7173 16.206 29.7173 16.5306 29.5141L23.4428 25.1861C26.0707 23.5407 27.6666 20.6585 27.6666 17.558V5.33317C27.6666 4.8743 27.3543 4.47432 26.9091 4.36303L16.2425 1.69636ZM6.33325 17.558V6.11395L15.9999 3.69728L25.6666 6.11395V17.558C25.6666 19.9695 24.4253 22.2112 22.3814 23.491L15.9999 27.4867L9.61842 23.491C7.57451 22.2112 6.33325 19.9695 6.33325 17.558Z" fill="white"/>
</svg>
