<svg width="24" height="24" viewBox="0 0 24 24" fill="none" xmlns="http://www.w3.org/2000/svg">
<path d="M11 8.75H8V7.25H11V8.75Z" fill="#FCFCFD"/>
<path d="M16 12.75H8V11.25H16V12.75Z" fill="#FCFCFD"/>
<path d="M16 16.75H8V15.25H16V16.75Z" fill="#FCFCFD"/>
<path fill-rule="evenodd" clip-rule="evenodd" d="M3.25 4C3.25 3.0335 4.0335 2.25 5 2.25H15C15.1989 2.25 15.3897 2.32902 15.5303 2.46967L20.5303 7.46967C20.671 7.61032 20.75 7.80109 20.75 8V20C20.75 20.9665 19.9665 21.75 19 21.75H5C4.0335 21.75 3.25 20.9665 3.25 20V4ZM5 3.75C4.86193 3.75 4.75 3.86193 4.75 4V20C4.75 20.1381 4.86193 20.25 5 20.25H19C19.1381 20.25 19.25 20.1381 19.25 20V8.5H14.5V3.75H5Z" fill="#FCFCFD"/>
</svg>
