<svg width="1200" height="68" viewBox="0 0 1200 68" fill="none" xmlns="http://www.w3.org/2000/svg">
<mask id="path-1-inside-1_600_9646" fill="white">
<path d="M0 0H1200V68H0V0Z"/>
</mask>
<path d="M1200 67H0V69H1200V67Z" fill="white" fill-opacity="0.08" mask="url(#path-1-inside-1_600_9646)"/>
<path d="M28.7503 30.0842V33.3019L31.8105 32.3076L32.274 33.7342L29.2138 34.7285L31.1051 37.3317L29.8916 38.2134L28.0003 35.6102L26.109 38.2134L24.8954 37.3317L26.7868 34.7285L23.7266 33.7342L24.1901 32.3076L27.2503 33.3019V30.0842H28.7503Z" fill="#E94359"/>
<path d="M53.387 31.038H55.613V44.184H53.387V31.038ZM53.534 24.738H55.466C57.188 27.552 60.17 30.009 64.37 32.13L63.047 34.125C59.225 32.151 56.369 29.715 54.5 26.796C52.253 29.967 49.397 32.403 45.953 34.125L44.63 32.13C48.494 30.24 51.455 27.762 53.534 24.738ZM76.529 24.78C76.529 26.628 76.466 28.203 76.382 29.505C77.6 35.028 80.603 39.249 85.37 42.168L83.9 44.1C79.973 41.454 77.201 37.926 75.584 33.495C74.198 37.779 71.321 41.328 66.953 44.142L65.609 42.168C71.237 38.808 74.114 34.104 74.282 28.077C74.282 26.67 74.303 25.578 74.303 24.78H76.529ZM98.831 24.906H101.057C101.057 26.733 100.994 28.434 100.868 29.988C101.918 35.091 103.808 39.165 106.496 42.21L104.9 44.037C102.905 41.433 101.351 38.283 100.217 34.608C100.175 34.797 100.154 34.986 100.112 35.154C99.377 38.745 97.592 41.727 94.778 44.1L93.287 42.273C95.681 40.215 97.235 37.695 97.949 34.713C98.516 32.193 98.81 28.938 98.831 24.906ZM89.738 24.885C91.061 25.914 92.195 26.943 93.14 27.951L91.628 29.484C90.83 28.518 89.675 27.489 88.184 26.397L89.738 24.885ZM86.819 30.954H91.817V39.522C92.426 39.018 93.077 38.43 93.749 37.779L94.337 40.026C92.972 41.286 91.523 42.399 89.969 43.407L89.129 41.454C89.507 41.16 89.696 40.761 89.696 40.299V33.054H86.819V30.954ZM120.629 27.657H114.938V25.515H126.908V27.657H122.855V32.844H126.614V34.881H122.855V41.349H127.349V43.491H114.308V41.349H116.219V30.702H118.361V41.349H120.629V27.657ZM110.801 24.906C112.103 25.935 113.195 26.943 114.119 27.951L112.628 29.484C111.83 28.497 110.717 27.447 109.268 26.355L110.801 24.906ZM107.798 30.954H112.733V39.417C113.279 38.913 113.846 38.388 114.434 37.8L115.001 40.11C113.72 41.328 112.355 42.441 110.927 43.428L110.087 41.433C110.465 41.139 110.654 40.761 110.654 40.299V33.054H107.798V30.954Z" fill="#FCFCFD"/>
</svg>
