<svg width="24" height="24" viewBox="0 0 24 24" fill="none" xmlns="http://www.w3.org/2000/svg">
<path d="M11.25 2.5V11H12.75V2.5H11.25Z" fill="#FCFCFD"/>
<path d="M3.90853 10.3905C4.22685 8.79016 5.01259 7.32015 6.16638 6.16637L5.10572 5.10571C3.74215 6.46927 2.81355 8.20655 2.43735 10.0979C2.06114 11.9892 2.25422 13.9496 2.99218 15.7312C3.73013 17.5127 4.97981 19.0355 6.58319 20.1068C8.18657 21.1782 10.0716 21.75 12 21.75C13.9284 21.75 15.8134 21.1782 17.4168 20.1068C19.0202 19.0355 20.2699 17.5127 21.0078 15.7312C21.7458 13.9496 21.9389 11.9892 21.5627 10.0979C21.1865 8.20655 20.2579 6.46927 18.8943 5.10571L17.8336 6.16637C18.9874 7.32015 19.7732 8.79016 20.0915 10.3905C20.4098 11.9908 20.2464 13.6496 19.622 15.1571C18.9976 16.6646 17.9402 17.9531 16.5835 18.8596C15.2268 19.7661 13.6317 20.25 12 20.25C10.3683 20.25 8.77325 19.7661 7.41655 18.8596C6.05984 17.9531 5.00242 16.6646 4.378 15.1571C3.75357 13.6496 3.5902 11.9908 3.90853 10.3905Z" fill="#FCFCFD"/>
</svg>
