<svg xmlns="http://www.w3.org/2000/svg" width="18" height="18" viewBox="0 0 18 18" fill="none">
  <path d="M13.0849 2.93489C13.988 3.54315 14.7514 4.35047 15.3104 5.30531L14.3396 5.87373C13.5644 4.5497 12.3249 3.56091 10.8617 3.09927L10.9784 2.0028L14.4574 1.67603L14.5626 2.7961L13.0849 2.93489Z" fill="#FCFCFD"/>
  <path d="M6.375 2.81252C4.40749 2.81252 2.8125 4.40751 2.8125 6.37502C2.8125 7.71683 3.55433 8.88538 4.65023 9.49291C4.56581 9.87482 4.51565 10.2696 4.50312 10.6738C2.84592 9.95122 1.6875 8.2984 1.6875 6.37502C1.6875 3.78619 3.78617 1.68752 6.375 1.68752C8.29838 1.68752 9.9512 2.84594 10.6738 4.50314C10.2696 4.51567 9.87479 4.56584 9.49289 4.65025C8.88536 3.55435 7.71681 2.81252 6.375 2.81252Z" fill="#FCFCFD"/>
  <path fill-rule="evenodd" clip-rule="evenodd" d="M10.875 5.43752C7.87195 5.43752 5.4375 7.87197 5.4375 10.875C5.4375 13.8781 7.87195 16.3125 10.875 16.3125C13.878 16.3125 16.3125 13.8781 16.3125 10.875C16.3125 7.87197 13.878 5.43752 10.875 5.43752ZM6.5625 10.875C6.5625 8.49329 8.49327 6.56252 10.875 6.56252C13.2567 6.56252 15.1875 8.49329 15.1875 10.875C15.1875 13.2568 13.2567 15.1875 10.875 15.1875C8.49327 15.1875 6.5625 13.2568 6.5625 10.875Z" fill="#FCFCFD"/>
  <path d="M2.12708 12.1322C2.68613 13.0871 3.4495 13.8944 4.35258 14.5027L2.87487 14.6414L2.98007 15.7615L6.45913 15.4347L6.57578 14.3383C5.1126 13.8766 3.87312 12.8878 3.09791 11.5638L2.12708 12.1322Z" fill="#FCFCFD"/>
</svg>