<svg width="74" height="40" viewBox="0 0 74 40" fill="none" xmlns="http://www.w3.org/2000/svg">
<path d="M3.548 19.163H11.504V24.077H3.548V19.163ZM10.308 22.985V22.166H4.744V22.985H10.308ZM4.744 21.126H10.308V20.255H4.744V21.126ZM2.144 15.406H6.928V14.314H8.124V15.406H12.908V16.55H9.229C10.191 17.33 11.608 17.967 13.467 18.435L12.934 19.553C10.698 18.786 9.099 17.785 8.124 16.563V18.773H6.928V16.576C5.914 17.772 4.328 18.773 2.17 19.553L1.507 18.461C3.418 17.941 4.861 17.304 5.849 16.55H2.144V15.406ZM1.884 24.857H13.129V25.988H1.884V24.857ZM15.534 16.628H19.629C19.733 16.407 19.824 16.186 19.915 15.965C18.693 16.03 17.367 16.069 15.963 16.069L15.612 15.055C19.278 15.055 22.372 14.808 24.868 14.327L25.44 15.302C24.205 15.562 22.762 15.757 21.124 15.887C21.033 16.147 20.942 16.394 20.851 16.628H25.518V17.681H20.357C20.227 17.902 20.11 18.123 19.98 18.331H26.272V19.423H19.252C19.07 19.644 18.901 19.865 18.732 20.073H25.037V26.352H23.867V25.858H18.238V26.352H17.068V21.75C16.47 22.27 15.833 22.751 15.157 23.219L14.494 22.166C15.768 21.308 16.847 20.385 17.731 19.423H14.832V18.331H18.615C18.771 18.11 18.927 17.889 19.057 17.681H15.534V16.628ZM18.238 22.647V23.258H23.867V22.647H18.238ZM23.867 21.711V21.074H18.238V21.711H23.867ZM18.238 24.194V24.857H23.867V24.194H18.238ZM27.871 14.782H39.142V15.939H34.111V16.836H38.089V22.179H33.929C33.786 22.933 33.565 23.544 33.266 24.025C35.06 24.727 37.153 25.104 39.571 25.182L39.259 26.378C36.659 26.261 34.397 25.78 32.473 24.922C31.537 25.65 30.068 26.131 28.053 26.365L27.52 25.234C29.184 25.13 30.432 24.831 31.264 24.324C30.562 23.934 29.925 23.492 29.353 23.011L30.302 22.361C30.861 22.803 31.472 23.18 32.122 23.518C32.356 23.154 32.551 22.699 32.681 22.179H28.95V16.836H32.889V15.939H27.871V14.782ZM36.867 21.1V19.995H34.111V20.307C34.111 20.593 34.098 20.853 34.072 21.1H36.867ZM32.85 21.1C32.876 20.84 32.889 20.567 32.889 20.307V19.995H30.172V21.1H32.85ZM30.172 18.981H32.889V17.889H30.172V18.981ZM34.111 17.889V18.981H36.867V17.889H34.111ZM46.318 14.275L47.423 14.847C47.241 15.042 47.072 15.224 46.903 15.393H50.374V16.355C48.97 18.851 46.37 20.268 42.561 20.58L42.041 19.462C43.133 19.397 44.108 19.254 44.966 19.02C44.602 18.578 44.212 18.175 43.822 17.811L44.888 17.304C45.317 17.72 45.733 18.162 46.123 18.63C47.319 18.123 48.268 17.408 48.957 16.485H45.46C44.446 17.083 43.263 17.525 41.898 17.824L41.17 16.693C43.471 16.277 45.187 15.471 46.318 14.275ZM46.11 22.4C46.578 22.868 47.02 23.362 47.436 23.895C48.71 23.323 49.737 22.556 50.491 21.581H46.929C45.798 22.101 44.472 22.517 42.951 22.816L42.21 21.711C45.044 21.438 47.137 20.606 48.463 19.202L49.516 19.774C49.282 20.021 49.022 20.255 48.762 20.463H52.077V21.425C50.218 24.467 46.76 26.053 41.69 26.183L41.196 25C43.159 25 44.849 24.779 46.266 24.337C45.863 23.817 45.447 23.336 45.018 22.92L46.11 22.4Z" fill="#0099FF"/>
<path d="M61.6667 16.1667H68.3334C68.6095 16.1667 68.8334 16.3906 68.8334 16.6667V23.3334H67.8334V17.8739L62.0203 23.687L61.3132 22.9799L67.1263 17.1667H61.6667V16.1667Z" fill="#0099FF"/>
</svg>
