<svg width="24" height="24" viewBox="0 0 24 24" fill="none" xmlns="http://www.w3.org/2000/svg">
<path d="M17.4466 3.91311C18.6507 4.72411 19.6685 5.80054 20.4139 7.07367L19.1195 7.83156C18.0858 6.06619 16.4332 4.7478 14.4823 4.13228L14.6378 2.67032L19.2766 2.23462L19.4168 3.72805L17.4466 3.91311Z" fill="black"/>
<path d="M8.5 3.74995C5.87665 3.74995 3.75 5.8766 3.75 8.49995C3.75 10.289 4.7391 11.8471 6.20031 12.6571C6.08775 13.1663 6.02086 13.6927 6.00415 14.2317C3.79455 13.2682 2.25 11.0645 2.25 8.49995C2.25 5.04817 5.04822 2.24995 8.5 2.24995C11.0645 2.24995 13.2683 3.7945 14.2318 6.0041C13.6928 6.02081 13.1664 6.0877 12.6572 6.20026C11.8471 4.73905 10.2891 3.74995 8.5 3.74995Z" fill="black"/>
<path fill-rule="evenodd" clip-rule="evenodd" d="M14.5 7.24995C10.4959 7.24995 7.25 10.4959 7.25 14.4999C7.25 18.504 10.4959 21.7499 14.5 21.7499C18.5041 21.7499 21.75 18.504 21.75 14.4999C21.75 10.4959 18.5041 7.24995 14.5 7.24995ZM8.75 14.4999C8.75 11.3243 11.3244 8.74995 14.5 8.74995C17.6756 8.74995 20.25 11.3243 20.25 14.4999C20.25 17.6756 17.6756 20.2499 14.5 20.2499C11.3244 20.2499 8.75 17.6756 8.75 14.4999Z" fill="black"/>
<path d="M2.8361 16.1762C3.58151 17.4494 4.59933 18.5258 5.80344 19.3368L3.83316 19.5219L3.97343 21.0153L8.61218 20.5796L8.76771 19.1176C6.8168 18.5021 5.16416 17.1837 4.13055 15.4183L2.8361 16.1762Z" fill="black"/>
</svg>
