<svg width="108" height="64" viewBox="0 0 108 64" fill="none" xmlns="http://www.w3.org/2000/svg">
<rect x="0.5" y="0.5" width="107" height="63" rx="4.5" stroke="#9747FF" stroke-dasharray="10 5"/>
<path fill-rule="evenodd" clip-rule="evenodd" d="M23.25 25C23.25 24.0335 24.0335 23.25 25 23.25H39C39.9665 23.25 40.75 24.0335 40.75 25V39C40.75 39.9665 39.9665 40.75 39 40.75H25C24.0335 40.75 23.25 39.9665 23.25 39V25ZM25 24.75C24.8619 24.75 24.75 24.8619 24.75 25V39C24.75 39.1381 24.8619 39.25 25 39.25H39C39.1381 39.25 39.25 39.1381 39.25 39V25C39.25 24.8619 39.1381 24.75 39 24.75H25Z" fill="#626364"/>
<path fill-rule="evenodd" clip-rule="evenodd" d="M67.25 25C67.25 24.0335 68.0335 23.25 69 23.25H83C83.9665 23.25 84.75 24.0335 84.75 25V39C84.75 39.9665 83.9665 40.75 83 40.75H69C68.0335 40.75 67.25 39.9665 67.25 39V25Z" fill="#0099FF"/>
<path fill-rule="evenodd" clip-rule="evenodd" d="M82.0304 28.5304L75.5304 35.0304C75.2375 35.3233 74.7626 35.3233 74.4697 35.0304L70.9697 31.5304L72.0304 30.4697L75.0001 33.4394L80.9697 27.4697L82.0304 28.5304Z" fill="#FCFCFD"/>
</svg>
