<svg width="24" height="24" viewBox="0 0 24 24" fill="none" xmlns="http://www.w3.org/2000/svg">
<path fill-rule="evenodd" clip-rule="evenodd" d="M12.0001 8.24996C9.92903 8.24996 8.2501 9.92889 8.2501 12C8.2501 14.071 9.92903 15.75 12.0001 15.75C14.0712 15.75 15.7501 14.071 15.7501 12C15.7501 9.92889 14.0712 8.24996 12.0001 8.24996ZM9.7501 12C9.7501 10.7573 10.7575 9.74996 12.0001 9.74996C13.2427 9.74996 14.2501 10.7573 14.2501 12C14.2501 13.2426 13.2427 14.25 12.0001 14.25C10.7575 14.25 9.7501 13.2426 9.7501 12Z" fill="black"/>
<path fill-rule="evenodd" clip-rule="evenodd" d="M12.8751 1.63912C12.3336 1.32651 11.6665 1.32651 11.1251 1.63912L3.46484 6.06177C2.92339 6.37438 2.58984 6.9521 2.58984 7.57731V16.4226C2.58984 17.0478 2.92339 17.6255 3.46484 17.9382L11.1251 22.3608C11.6666 22.6734 12.3336 22.6734 12.8751 22.3608L20.5354 17.9382C21.0768 17.6255 21.4104 17.0478 21.4104 16.4226V7.57731C21.4104 6.9521 21.0768 6.37437 20.5354 6.06177L12.8751 1.63912ZM11.8751 2.93816C11.9524 2.8935 12.0477 2.8935 12.1251 2.93816L19.7854 7.36081C19.8627 7.40546 19.9104 7.488 19.9104 7.57731V16.4226C19.9104 16.5119 19.8627 16.5945 19.7854 16.6391L12.1251 21.0618C12.0477 21.1064 11.9524 21.1064 11.8751 21.0618L4.21484 16.6391C4.13749 16.5945 4.08984 16.5119 4.08984 16.4226V7.57731C4.08984 7.488 4.13749 7.40546 4.21484 7.36081L11.8751 2.93816Z" fill="black"/>
</svg>
