<svg width="108" height="64" viewBox="0 0 108 64" fill="none" xmlns="http://www.w3.org/2000/svg">
<rect x="0.5" y="0.5" width="107" height="63" rx="4.5" stroke="#9747FF" stroke-dasharray="10 5"/>
<path d="M36.0003 43C34.3434 43 33.0003 41.6569 33.0003 40C33.0003 38.3431 34.3434 37 36.0003 37C37.6571 37 39.0003 38.3431 39.0003 40C39.0003 41.6569 37.6571 43 36.0003 43Z" fill="black"/>
<path fill-rule="evenodd" clip-rule="evenodd" d="M25.1816 40C26.1222 34.8798 30.6081 31 36.0003 31C41.3924 31 45.8784 34.8798 46.8189 40C45.8784 45.1202 41.3924 49 36.0003 49C30.6081 49 26.1222 45.1202 25.1816 40ZM36.0003 45C38.7617 45 41.0003 42.7614 41.0003 40C41.0003 37.2386 38.7617 35 36.0003 35C33.2388 35 31.0003 37.2386 31.0003 40C31.0003 42.7614 33.2388 45 36.0003 45Z" fill="black"/>
<path d="M75.1305 45.8421L74.3427 48.7821L72.4108 48.2645L73.1983 45.3256C72.0092 44.8876 70.9166 44.2501 69.9612 43.4536L67.8078 45.6069L66.3936 44.1927L68.547 42.0394C67.3558 40.6105 66.5201 38.8749 66.1758 36.9684L67.0763 36.8047C69.8688 38.8157 73.2962 40.0003 77.0002 40.0003C80.7043 40.0003 84.1316 38.8157 86.9241 36.8047L87.8247 36.9684C87.4803 38.8749 86.6446 40.6105 85.4535 42.0394L87.6068 44.1927L86.1926 45.6069L84.0393 43.4536C83.0838 44.2501 81.9912 44.8876 80.8021 45.3256L81.5896 48.2645L79.6578 48.7821L78.87 45.8421C78.2623 45.9461 77.6376 46.0003 77.0002 46.0003C76.3629 46.0003 75.7381 45.9461 75.1305 45.8421Z" fill="black"/>
<path fill-rule="evenodd" clip-rule="evenodd" d="M32 11.25C29.9289 11.25 28.25 12.9289 28.25 15C28.25 17.0711 29.9289 18.75 32 18.75C34.0711 18.75 35.75 17.0711 35.75 15C35.75 12.9289 34.0711 11.25 32 11.25ZM29.75 15C29.75 13.7574 30.7574 12.75 32 12.75C33.2426 12.75 34.25 13.7574 34.25 15C34.25 16.2426 33.2426 17.25 32 17.25C30.7574 17.25 29.75 16.2426 29.75 15Z" fill="black"/>
<path fill-rule="evenodd" clip-rule="evenodd" d="M31.9999 6.25C26.7983 6.25 22.461 9.94367 21.4649 14.8508C21.445 14.9493 21.445 15.0507 21.4649 15.1492C22.461 20.0563 26.7983 23.75 31.9999 23.75C37.2015 23.75 41.5388 20.0563 42.5349 15.1492C42.5549 15.0507 42.5549 14.9493 42.5349 14.8508C41.5388 9.94367 37.2015 6.25 31.9999 6.25ZM31.9999 22.25C27.5786 22.25 23.8803 19.1473 22.9665 15C23.8803 10.8527 27.5786 7.75 31.9999 7.75C36.4213 7.75 40.1196 10.8527 41.0333 15C40.1196 19.1473 36.4213 22.25 31.9999 22.25Z" fill="black"/>
<path d="M75.9998 20.25C71.5256 20.25 67.7918 17.0727 66.9349 12.8508L65.4648 13.1492C65.8407 15.0009 66.6923 16.6798 67.8866 18.0527L65.4696 20.4697L66.5302 21.5304L68.9472 19.1134C69.9921 20.0225 71.2144 20.7331 72.5552 21.1864L71.7723 24.3181L73.2275 24.6819L74.0066 21.5656C74.6525 21.6867 75.3187 21.75 75.9998 21.75C76.681 21.75 77.3473 21.6867 77.9932 21.5656L78.7723 24.6819L80.2275 24.3181L79.4446 21.1863C80.7854 20.733 82.0076 20.0224 83.0525 19.1133L85.4696 21.5304L86.5302 20.4697L84.1131 18.0526C85.3073 16.6797 86.1589 15.0009 86.5348 13.1492L85.0648 12.8508C84.2078 17.0727 80.474 20.25 75.9998 20.25Z" fill="black"/>
</svg>
