<svg width="46" height="46" viewBox="0 0 46 46" fill="none" xmlns="http://www.w3.org/2000/svg">
<g id="Logo">
<path id="Vector" d="M35.3527 4.09351L30.9904 11.3907H5.94234L2.875 4.10949L35.3527 4.09351Z" fill="#1E1F1F"/>
<path id="Vector_2" d="M41.5651 20.8599C42.3416 22.6779 42.7733 24.6764 42.7733 26.7844C42.7733 30.087 41.709 33.1407 39.9069 35.6302C37.1594 39.4375 32.692 41.9065 27.649 41.9065H13.9613L17.0286 34.6252H28.4392C30.8991 34.6252 33.0757 33.4262 34.414 31.5716C35.3573 30.2675 35.8803 28.6481 35.7958 26.9009H20.2947L23.3438 19.6517H31.3216C33.4502 19.6517 35.1952 17.8679 35.1952 15.7438C35.1952 14.0811 34.1354 12.6559 32.6486 12.1192L37.0315 4.52966C40.6698 6.57608 43.125 10.4793 43.125 14.9513C43.125 17.1051 42.5586 19.1218 41.5628 20.8622L41.5651 20.8599Z" fill="#1E1F1F"/>
<path id="Vector_3" d="M12.5932 12.8684H24.3395L12.1044 41.9065H6.72803L12.5932 12.8684Z" fill="#1E1F1F"/>
</g>
</svg>
