<svg width="24" height="24" viewBox="0 0 24 24" fill="none" xmlns="http://www.w3.org/2000/svg">
<g id="Logo">
<path id="Vector" d="M18.4449 2.13573L16.1689 5.94297H3.10035L1.5 2.14407L18.4449 2.13573Z" fill="#1E1F1F"/>
<path id="Vector_2" d="M21.6861 10.8834C22.0913 11.832 22.3165 12.8747 22.3165 13.9745C22.3165 15.6976 21.7612 17.2908 20.821 18.5897C19.3875 20.5761 17.0567 21.8643 14.4256 21.8643H7.28415L8.8845 18.0654H14.8379C16.1212 18.0654 17.2569 17.4398 17.9551 16.4722C18.4473 15.7917 18.7202 14.9469 18.6761 14.0353H10.5885L12.1793 10.2531H16.3417C17.4523 10.2531 18.3627 9.32242 18.3627 8.21421C18.3627 7.3467 17.8098 6.60313 17.034 6.3231L19.3207 2.36333C21.219 3.43103 22.5 5.46751 22.5 7.80071C22.5 8.92442 22.2045 9.97662 21.6849 10.8846L21.6861 10.8834Z" fill="#1E1F1F"/>
<path id="Vector_3" d="M6.57036 6.71395H12.6989L6.31536 21.8643H3.51027L6.57036 6.71395Z" fill="#1E1F1F"/>
</g>
</svg>
