<svg width="24" height="24" viewBox="0 0 24 24" fill="none" xmlns="http://www.w3.org/2000/svg">
<g id="Logo">
<path id="Vector" d="M18.4449 2.13574L16.1689 5.94298H3.10035L1.5 2.14408L18.4449 2.13574Z" fill="white"/>
<path id="Vector_2" d="M21.6862 10.8834C22.0913 11.8319 22.3165 12.8746 22.3165 13.9745C22.3165 15.6976 21.7612 17.2908 20.821 18.5896C19.3875 20.5761 17.0567 21.8642 14.4256 21.8642H7.28418L8.88453 18.0653H14.8379C16.1213 18.0653 17.2569 17.4397 17.9552 16.4721C18.4473 15.7917 18.7202 14.9468 18.6761 14.0352H10.5886L12.1794 10.253H16.3417C17.4523 10.253 18.3627 9.32237 18.3627 8.21416C18.3627 7.34666 17.8098 6.60308 17.0341 6.32305L19.3208 2.36328C21.219 3.43098 22.5 5.46746 22.5 7.80066C22.5 8.92437 22.2045 9.97657 21.685 10.8846L21.6862 10.8834Z" fill="white"/>
<path id="Vector_3" d="M6.57083 6.71399H12.6994L6.31583 21.8643H3.51074L6.57083 6.71399Z" fill="white"/>
</g>
</svg>
