<svg width="100" height="24" viewBox="0 0 100 24" fill="none" xmlns="http://www.w3.org/2000/svg">
<path fill-rule="evenodd" clip-rule="evenodd" d="M17.0003 4.29919L15.2236 7.27136H5.02143L3.77209 4.30571L17.0003 4.29919ZM19.5308 11.1281C19.8471 11.8686 20.0229 12.6825 20.0229 13.5412C20.0229 14.8863 19.5894 16.1301 18.8554 17.144C17.7363 18.6948 15.9167 19.7004 13.8627 19.7004H8.2877L9.53703 16.7347H14.1846C15.1865 16.7347 16.073 16.2463 16.6181 15.491C17.0023 14.9598 17.2154 14.3002 17.1809 13.5886H10.8673L12.1092 10.636H15.3586C16.2256 10.636 16.9363 9.90943 16.9363 9.04429C16.9363 8.36707 16.5047 7.78659 15.8991 7.56798L17.6842 4.47673C19.1661 5.31024 20.1661 6.90005 20.1661 8.7215C20.1661 9.59873 19.9354 10.4201 19.5298 11.129L19.5308 11.1281ZM12.5145 7.87341H7.73021L5.34131 19.7007H7.53113L12.5145 7.87341ZM92.1864 10.245L88.8628 18H92.7328L96.2278 9.675V7.5H87.2428V11.775H90.1678V10.245H92.1864ZM82.5333 18V10.17H80.7333V7.5H86.0733V18H82.5333ZM73.789 10.035C73.279 9.77502 72.709 9.64502 72.079 9.64502C71.409 9.64502 70.799 9.80002 70.249 10.11C70.013 10.2455 69.798 10.4106 69.604 10.6053V9.79502H66.379V18H69.769V14.145C69.769 13.735 69.824 13.41 69.934 13.17C70.054 12.93 70.209 12.76 70.399 12.66C70.599 12.55 70.814 12.495 71.044 12.495C71.354 12.495 71.599 12.605 71.779 12.825C71.959 13.035 72.049 13.395 72.049 13.905V18H75.439V13.32C75.439 12.46 75.289 11.76 74.989 11.22C74.699 10.68 74.299 10.285 73.789 10.035ZM61.1092 18.15C60.1092 18.15 59.2342 17.965 58.4842 17.595C57.7442 17.225 57.1692 16.72 56.7592 16.08C56.3492 15.43 56.1442 14.7 56.1442 13.89C56.1442 13.06 56.3442 12.325 56.7442 11.685C57.1542 11.045 57.7092 10.545 58.4092 10.185C59.1192 9.82502 59.9142 9.64502 60.7942 9.64502C61.6042 9.64502 62.3492 9.80502 63.0292 10.125C63.7192 10.445 64.2692 10.92 64.6792 11.55C65.0992 12.18 65.3092 12.96 65.3092 13.89C65.3092 14.01 65.3042 14.145 65.2942 14.295C65.2842 14.435 65.2742 14.565 65.2642 14.685H59.5723C59.5997 14.7586 59.6319 14.8286 59.6692 14.895C59.8092 15.145 60.0092 15.335 60.2692 15.465C60.5292 15.585 60.8442 15.645 61.2142 15.645C61.5942 15.645 61.9042 15.595 62.1442 15.495C62.3942 15.395 62.6542 15.245 62.9242 15.045L64.6942 16.83C64.2942 17.26 63.7992 17.59 63.2092 17.82C62.6292 18.04 61.9292 18.15 61.1092 18.15ZM59.4989 13.05H62.1458C62.1158 12.9121 62.0703 12.7871 62.0092 12.675C61.8992 12.445 61.7442 12.27 61.5442 12.15C61.3442 12.02 61.1042 11.955 60.8242 11.955C60.5442 11.955 60.2992 12.02 60.0892 12.15C59.8892 12.27 59.7342 12.445 59.6242 12.675C59.5681 12.7871 59.5264 12.9121 59.4989 13.05ZM49.6421 16.061V18H46.2521V6.87H49.6421V12.1749L51.9971 9.795H56.0021L52.6121 13.3477L56.2721 18H52.1771L50.1885 15.4811L49.6421 16.061ZM40.421 18.15C39.491 18.15 38.666 17.97 37.946 17.61C37.236 17.24 36.676 16.735 36.266 16.095C35.856 15.455 35.651 14.72 35.651 13.89C35.651 13.06 35.856 12.325 36.266 11.685C36.676 11.045 37.236 10.545 37.946 10.185C38.666 9.82502 39.491 9.64502 40.421 9.64502C41.351 9.64502 42.176 9.82502 42.896 10.185C43.616 10.545 44.176 11.045 44.576 11.685C44.986 12.325 45.191 13.06 45.191 13.89C45.191 14.72 44.986 15.455 44.576 16.095C44.176 16.735 43.616 17.24 42.896 17.61C42.176 17.97 41.351 18.15 40.421 18.15ZM40.421 15.51C40.671 15.51 40.896 15.45 41.096 15.33C41.296 15.21 41.456 15.03 41.576 14.79C41.696 14.54 41.756 14.24 41.756 13.89C41.756 13.53 41.696 13.235 41.576 13.005C41.456 12.765 41.296 12.585 41.096 12.465C40.896 12.345 40.671 12.285 40.421 12.285C40.171 12.285 39.946 12.345 39.746 12.465C39.546 12.585 39.386 12.765 39.266 13.005C39.146 13.235 39.086 13.53 39.086 13.89C39.086 14.24 39.146 14.54 39.266 14.79C39.386 15.03 39.546 15.21 39.746 15.33C39.946 15.45 40.171 15.51 40.421 15.51ZM29.477 10.245V18H33.017V10.245H36.092V7.5H26.402V10.245H29.477Z" fill="#FCFCFD"/>
</svg>
