<svg xmlns="http://www.w3.org/2000/svg" width="40" height="40" viewBox="0 0 40 40" fill="none">
  <path d="M3.75044 11.2817C4.10658 10.4024 4.28465 9.9627 4.60571 9.62683C4.88811 9.3314 5.24508 9.0912 5.62546 8.94066C6.0579 8.76953 6.53326 8.76953 7.48397 8.76953H34.7952C35.746 8.76953 36.2213 8.76953 36.5151 8.94066C36.7736 9.0912 36.936 9.3314 36.9791 9.62683C37.0281 9.9627 36.85 10.4024 36.4939 11.2817L36.2496 11.8849C35.8934 12.7642 35.7154 13.2039 35.3943 13.5398C35.1119 13.8352 34.7549 14.0754 34.3745 14.2259C33.9421 14.3971 33.4667 14.3971 32.516 14.3971H5.20477C4.25405 14.3971 3.7787 14.3971 3.48488 14.2259C3.22643 14.0754 3.06403 13.8352 3.02093 13.5398C2.97194 13.2039 3.15001 12.7642 3.50615 11.8849L3.75044 11.2817Z" fill="black"/>
  <path d="M9.5754 14.3971H17.2562L11.4561 28.7182C11.0999 29.5976 10.9218 30.0373 10.6008 30.3731C10.3184 30.6686 9.96141 30.9088 9.58102 31.0593C9.14859 31.2304 8.67323 31.2304 7.72252 31.2304H5.47382C4.52311 31.2304 4.04775 31.2304 3.75393 31.0593C3.49549 30.9088 3.33308 30.6686 3.28998 30.3731C3.24099 30.0373 3.41906 29.5976 3.77521 28.7182L9.5754 14.3971Z" fill="black"/>
  <path d="M20.9383 14.3971H28.6192L26.4263 19.8116C26.0701 20.6909 25.892 21.1306 25.571 21.4664C25.2886 21.7619 24.9316 22.0021 24.5512 22.1526C24.1188 22.3237 23.6434 22.3237 22.6927 22.3237H20.444C19.4933 22.3237 19.018 22.3237 18.7241 22.1526C18.4657 22.0021 18.3033 21.7619 18.2602 21.4664C18.2112 21.1306 18.3893 20.6909 18.7454 19.8116L20.9383 14.3971Z" fill="black"/>
  <path d="M22.4225 24.836C22.7786 23.9566 22.9567 23.5169 23.2777 23.1811C23.5601 22.8856 23.9171 22.6454 24.2975 22.4949C24.7299 22.3238 25.2053 22.3238 26.156 22.3238H28.4047C29.3554 22.3238 29.8308 22.3238 30.1246 22.4949C30.383 22.6454 30.5454 22.8856 30.5885 23.1811C30.6375 23.5169 30.4594 23.9566 30.1033 24.836L28.5309 28.7182C28.1748 29.5976 27.9967 30.0373 27.6757 30.3731C27.3933 30.6686 27.0363 30.9088 26.6559 31.0593C26.2235 31.2304 25.7481 31.2304 24.7974 31.2304H22.5487C21.598 31.2304 21.1226 31.2304 20.8288 31.0593C20.5704 30.9088 20.408 30.6686 20.3649 30.3731C20.3159 30.0373 20.4939 29.5976 20.8501 28.7182L22.4225 24.836Z" fill="black"/>
</svg>