<svg width="40" height="40" viewBox="0 0 40 40" fill="none" xmlns="http://www.w3.org/2000/svg">
<g clip-path="url(#clip0_897_29057)">
<path d="M28.3857 7.16528L25.4244 12.1189H8.42088L6.33865 7.17614L28.3857 7.16528Z" fill="#060707"/>
<path d="M32.603 18.5467C33.1301 19.7809 33.4231 21.1375 33.4231 22.5686C33.4231 24.8105 32.7006 26.8834 31.4774 28.5734C29.6122 31.1579 26.5796 32.8339 23.1562 32.8339H13.8645L15.9467 27.8912H23.6927C25.3625 27.8912 26.84 27.0772 27.7486 25.8182C28.3889 24.933 28.744 23.8337 28.6866 22.6476H18.1638L20.2337 17.7266H25.6493C27.0943 17.7266 28.2788 16.5157 28.2788 15.0738C28.2788 13.9451 27.5594 12.9776 26.5501 12.6133L29.5254 7.46118C31.9952 8.85036 33.6619 11.5 33.6619 14.5358C33.6619 15.9978 33.2774 17.3669 32.6014 18.5483L32.603 18.5467Z" fill="#060707"/>
<g filter="url(#filter0_d_897_29057)">
<path d="M12.9352 13.1223H20.9091L12.6034 32.8345H8.9537L12.9352 13.1223Z" fill="#060707"/>
<path d="M9.56479 32.3345L13.3443 13.6223H20.1558L12.2715 32.3345H9.56479Z" stroke="black"/>
</g>
</g>
<defs>
<filter id="filter0_d_897_29057" x="4.9537" y="13.1223" width="19.9554" height="27.7121" filterUnits="userSpaceOnUse" color-interpolation-filters="sRGB">
<feFlood flood-opacity="0" result="BackgroundImageFix"/>
<feColorMatrix in="SourceAlpha" type="matrix" values="0 0 0 0 0 0 0 0 0 0 0 0 0 0 0 0 0 0 127 0" result="hardAlpha"/>
<feOffset dy="4"/>
<feGaussianBlur stdDeviation="2"/>
<feComposite in2="hardAlpha" operator="out"/>
<feColorMatrix type="matrix" values="0 0 0 0 0 0 0 0 0 0 0 0 0 0 0 0 0 0 0.25 0"/>
<feBlend mode="normal" in2="BackgroundImageFix" result="effect1_dropShadow_897_29057"/>
<feBlend mode="normal" in="SourceGraphic" in2="effect1_dropShadow_897_29057" result="shape"/>
</filter>
<clipPath id="clip0_897_29057">
<path d="M0 5.36666C0 3.48815 0 2.5489 0.365582 1.8314C0.687156 1.20028 1.20028 0.687156 1.8314 0.365582C2.5489 0 3.48815 0 5.36666 0H34.6333C36.5118 0 37.4511 0 38.1686 0.365582C38.7997 0.687156 39.3128 1.20028 39.6344 1.8314C40 2.5489 40 3.48815 40 5.36666V34.6333C40 36.5118 40 37.4511 39.6344 38.1686C39.3128 38.7997 38.7997 39.3128 38.1686 39.6344C37.4511 40 36.5118 40 34.6333 40H5.36666C3.48815 40 2.5489 40 1.8314 39.6344C1.20028 39.3128 0.687156 38.7997 0.365582 38.1686C0 37.4511 0 36.5118 0 34.6333V5.36666Z" fill="white"/>
</clipPath>
</defs>
</svg>
