<svg xmlns="http://www.w3.org/2000/svg" width="32" height="32" viewBox="0 0 32 32" fill="none">
  <circle cx="16" cy="16" r="16" fill="#242526"/>
  <circle cx="16" cy="16" r="15.75" stroke="white" stroke-opacity="0.2" stroke-width="0.5"/>
  <path d="M20.4723 9.15479L18.8929 11.7967H9.82439L8.71387 9.16057L20.4723 9.15479Z" fill="url(#paint0_linear_1846_9285)"/>
  <path d="M22.7216 15.2249C23.0027 15.8831 23.159 16.6066 23.159 17.3699C23.159 18.5656 22.7737 19.6711 22.1213 20.5724C21.1265 21.9509 19.5091 22.8447 17.6833 22.8447H12.7277L13.8383 20.2086H17.9694C18.86 20.2086 19.648 19.7745 20.1326 19.103C20.4741 18.6309 20.6634 18.0446 20.6328 17.412H15.0207L16.1246 14.7875H19.013C19.7836 14.7875 20.4154 14.1417 20.4154 13.3727C20.4154 12.7707 20.0317 12.2547 19.4934 12.0604L21.0802 9.3126C22.3974 10.0535 23.2864 11.4667 23.2864 13.0857C23.2864 13.8655 23.0813 14.5956 22.7208 15.2257L22.7216 15.2249Z" fill="url(#paint1_linear_1846_9285)"/>
  <path d="M12.2322 12.3319H16.4849L12.0552 22.845H10.1087L12.2322 12.3319Z" fill="url(#paint2_linear_1846_9285)"/>
  <path d="M20.4723 9.15479L18.8929 11.7967H9.82439L8.71387 9.16057L20.4723 9.15479Z" stroke="url(#paint3_linear_1846_9285)" stroke-width="0.177778"/>
  <path d="M22.7216 15.2249C23.0027 15.8831 23.159 16.6066 23.159 17.3699C23.159 18.5656 22.7737 19.6711 22.1213 20.5724C21.1265 21.9509 19.5091 22.8447 17.6833 22.8447H12.7277L13.8383 20.2086H17.9694C18.86 20.2086 19.648 19.7745 20.1326 19.103C20.4741 18.6309 20.6634 18.0446 20.6328 17.412H15.0207L16.1246 14.7875H19.013C19.7836 14.7875 20.4154 14.1417 20.4154 13.3727C20.4154 12.7707 20.0317 12.2547 19.4934 12.0604L21.0802 9.3126C22.3974 10.0535 23.2864 11.4667 23.2864 13.0857C23.2864 13.8655 23.0813 14.5956 22.7208 15.2257L22.7216 15.2249Z" stroke="url(#paint4_linear_1846_9285)" stroke-width="0.177778"/>
  <path d="M12.2322 12.3319H16.4849L12.0552 22.845H10.1087L12.2322 12.3319Z" stroke="url(#paint5_linear_1846_9285)" stroke-width="0.177778"/>
  <defs>
    <linearGradient id="paint0_linear_1846_9285" x1="16.0001" y1="9.15479" x2="16.0001" y2="22.845" gradientUnits="userSpaceOnUse">
      <stop stop-color="white"/>
      <stop offset="1" stop-color="white" stop-opacity="0.4"/>
    </linearGradient>
    <linearGradient id="paint1_linear_1846_9285" x1="16.0001" y1="9.15479" x2="16.0001" y2="22.845" gradientUnits="userSpaceOnUse">
      <stop stop-color="white"/>
      <stop offset="1" stop-color="white" stop-opacity="0.4"/>
    </linearGradient>
    <linearGradient id="paint2_linear_1846_9285" x1="16.0001" y1="9.15479" x2="16.0001" y2="22.845" gradientUnits="userSpaceOnUse">
      <stop stop-color="white"/>
      <stop offset="1" stop-color="white" stop-opacity="0.4"/>
    </linearGradient>
    <linearGradient id="paint3_linear_1846_9285" x1="13.7965" y1="11.4673" x2="6.38379" y2="21.1379" gradientUnits="userSpaceOnUse">
      <stop stop-color="white" stop-opacity="0"/>
      <stop offset="1" stop-color="white"/>
    </linearGradient>
    <linearGradient id="paint4_linear_1846_9285" x1="13.7965" y1="11.4673" x2="6.38379" y2="21.1379" gradientUnits="userSpaceOnUse">
      <stop stop-color="white" stop-opacity="0"/>
      <stop offset="1" stop-color="white"/>
    </linearGradient>
    <linearGradient id="paint5_linear_1846_9285" x1="13.7965" y1="11.4673" x2="6.38379" y2="21.1379" gradientUnits="userSpaceOnUse">
      <stop stop-color="white" stop-opacity="0"/>
      <stop offset="1" stop-color="white"/>
    </linearGradient>
  </defs>
</svg>