<svg xmlns="http://www.w3.org/2000/svg" width="52" height="52" viewBox="0 0 52 52" fill="none">
  <circle cx="26" cy="26" r="26" fill="#242526"/>
  <circle cx="26" cy="26" r="25.5" stroke="white" stroke-opacity="0.2"/>
  <path d="M10.7305 18.4882C11.0832 17.6173 11.2596 17.1818 11.5776 16.8491C11.8573 16.5565 12.2108 16.3186 12.5876 16.1695C13.0159 16 13.4867 16 14.4284 16H41.479C42.4207 16 42.8915 16 43.1825 16.1695C43.4385 16.3186 43.5993 16.5565 43.642 16.8491C43.6905 17.1818 43.5142 17.6173 43.1614 18.4882L42.9195 19.0856C42.5667 19.9566 42.3904 20.3921 42.0724 20.7247C41.7927 21.0173 41.4391 21.2553 41.0623 21.4043C40.634 21.5738 40.1632 21.5738 39.2216 21.5738H12.1709C11.2293 21.5738 10.7584 21.5738 10.4674 21.4043C10.2115 21.2553 10.0506 21.0173 10.0079 20.7247C9.95939 20.3921 10.1358 19.9566 10.4885 19.0856L10.7305 18.4882Z" fill="url(#paint0_linear_2465_20678)"/>
  <path d="M16.4998 21.5738H24.1074L18.3625 35.7583C18.0098 36.6293 17.8334 37.0648 17.5154 37.3974C17.2357 37.6901 16.8822 37.928 16.5054 38.0771C16.0771 38.2466 15.6063 38.2466 14.6646 38.2466H12.4374C11.4958 38.2466 11.0249 38.2466 10.7339 38.0771C10.4779 37.928 10.3171 37.6901 10.2744 37.3974C10.2259 37.0648 10.4022 36.6293 10.755 35.7583L16.4998 21.5738Z" fill="url(#paint1_linear_2465_20678)"/>
  <path d="M27.7543 21.5738H35.3619L33.1899 26.9367C32.8372 27.8076 32.6608 28.2431 32.3428 28.5758C32.0631 28.8684 31.7095 29.1063 31.3328 29.2554C30.9045 29.4249 30.4336 29.4249 29.492 29.4249H27.2648C26.3231 29.4249 25.8523 29.4249 25.5613 29.2554C25.3053 29.1063 25.1444 28.8684 25.1018 28.5758C25.0532 28.2431 25.2296 27.8076 25.5824 26.9367L27.7543 21.5738Z" fill="url(#paint2_linear_2465_20678)"/>
  <path d="M29.2243 31.9131C29.577 31.0422 29.7534 30.6067 30.0714 30.274C30.3511 29.9814 30.7047 29.7435 31.0814 29.5944C31.5097 29.4249 31.9806 29.4249 32.9222 29.4249H35.1495C36.0911 29.4249 36.5619 29.4249 36.8529 29.5944C37.1089 29.7435 37.2698 29.9814 37.3124 30.274C37.361 30.6067 37.1846 31.0422 36.8319 31.9131L35.2745 35.7584C34.9218 36.6293 34.7454 37.0648 34.4274 37.3975C34.1477 37.6901 33.7941 37.928 33.4174 38.0771C32.9891 38.2466 32.5182 38.2466 31.5766 38.2466H29.3494C28.4077 38.2466 27.9369 38.2466 27.6459 38.0771C27.3899 37.928 27.229 37.6901 27.1864 37.3975C27.1378 37.0648 27.3142 36.6293 27.6669 35.7584L29.2243 31.9131Z" fill="url(#paint3_linear_2465_20678)"/>
  <path d="M10.7305 18.4882C11.0832 17.6173 11.2596 17.1818 11.5776 16.8491C11.8573 16.5565 12.2108 16.3186 12.5876 16.1695C13.0159 16 13.4867 16 14.4284 16H41.479C42.4207 16 42.8915 16 43.1825 16.1695C43.4385 16.3186 43.5993 16.5565 43.642 16.8491C43.6905 17.1818 43.5142 17.6173 43.1614 18.4882L42.9195 19.0856C42.5667 19.9566 42.3904 20.3921 42.0724 20.7247C41.7927 21.0173 41.4391 21.2553 41.0623 21.4043C40.634 21.5738 40.1632 21.5738 39.2216 21.5738H12.1709C11.2293 21.5738 10.7584 21.5738 10.4674 21.4043C10.2115 21.2553 10.0506 21.0173 10.0079 20.7247C9.95939 20.3921 10.1358 19.9566 10.4885 19.0856L10.7305 18.4882Z" stroke="url(#paint4_linear_2465_20678)" stroke-width="0.3"/>
  <path d="M16.4998 21.5738H24.1074L18.3625 35.7583C18.0098 36.6293 17.8334 37.0648 17.5154 37.3974C17.2357 37.6901 16.8822 37.928 16.5054 38.0771C16.0771 38.2466 15.6063 38.2466 14.6646 38.2466H12.4374C11.4958 38.2466 11.0249 38.2466 10.7339 38.0771C10.4779 37.928 10.3171 37.6901 10.2744 37.3974C10.2259 37.0648 10.4022 36.6293 10.755 35.7583L16.4998 21.5738Z" stroke="url(#paint5_linear_2465_20678)" stroke-width="0.3"/>
  <path d="M27.7543 21.5738H35.3619L33.1899 26.9367C32.8372 27.8076 32.6608 28.2431 32.3428 28.5758C32.0631 28.8684 31.7095 29.1063 31.3328 29.2554C30.9045 29.4249 30.4336 29.4249 29.492 29.4249H27.2648C26.3231 29.4249 25.8523 29.4249 25.5613 29.2554C25.3053 29.1063 25.1444 28.8684 25.1018 28.5758C25.0532 28.2431 25.2296 27.8076 25.5824 26.9367L27.7543 21.5738Z" stroke="url(#paint6_linear_2465_20678)" stroke-width="0.3"/>
  <path d="M29.2243 31.9131C29.577 31.0422 29.7534 30.6067 30.0714 30.274C30.3511 29.9814 30.7047 29.7435 31.0814 29.5944C31.5097 29.4249 31.9806 29.4249 32.9222 29.4249H35.1495C36.0911 29.4249 36.5619 29.4249 36.8529 29.5944C37.1089 29.7435 37.2698 29.9814 37.3124 30.274C37.361 30.6067 37.1846 31.0422 36.8319 31.9131L35.2745 35.7584C34.9218 36.6293 34.7454 37.0648 34.4274 37.3975C34.1477 37.6901 33.7941 37.928 33.4174 38.0771C32.9891 38.2466 32.5182 38.2466 31.5766 38.2466H29.3494C28.4077 38.2466 27.9369 38.2466 27.6459 38.0771C27.3899 37.928 27.229 37.6901 27.1864 37.3975C27.1378 37.0648 27.3142 36.6293 27.6669 35.7584L29.2243 31.9131Z" stroke="url(#paint7_linear_2465_20678)" stroke-width="0.3"/>
  <defs>
    <linearGradient id="paint0_linear_2465_20678" x1="26.825" y1="16" x2="26.825" y2="38.2466" gradientUnits="userSpaceOnUse">
      <stop stop-color="white"/>
      <stop offset="1" stop-color="white" stop-opacity="0.4"/>
    </linearGradient>
    <linearGradient id="paint1_linear_2465_20678" x1="26.825" y1="16" x2="26.825" y2="38.2466" gradientUnits="userSpaceOnUse">
      <stop stop-color="white"/>
      <stop offset="1" stop-color="white" stop-opacity="0.4"/>
    </linearGradient>
    <linearGradient id="paint2_linear_2465_20678" x1="26.825" y1="16" x2="26.825" y2="38.2466" gradientUnits="userSpaceOnUse">
      <stop stop-color="white"/>
      <stop offset="1" stop-color="white" stop-opacity="0.4"/>
    </linearGradient>
    <linearGradient id="paint3_linear_2465_20678" x1="26.825" y1="16" x2="26.825" y2="38.2466" gradientUnits="userSpaceOnUse">
      <stop stop-color="white"/>
      <stop offset="1" stop-color="white" stop-opacity="0.4"/>
    </linearGradient>
    <linearGradient id="paint4_linear_2465_20678" x1="21.7365" y1="19.7578" x2="11.3123" y2="39.0827" gradientUnits="userSpaceOnUse">
      <stop stop-color="white" stop-opacity="0"/>
      <stop offset="1" stop-color="white"/>
    </linearGradient>
    <linearGradient id="paint5_linear_2465_20678" x1="21.7365" y1="19.7578" x2="11.3123" y2="39.0827" gradientUnits="userSpaceOnUse">
      <stop stop-color="white" stop-opacity="0"/>
      <stop offset="1" stop-color="white"/>
    </linearGradient>
    <linearGradient id="paint6_linear_2465_20678" x1="21.7365" y1="19.7578" x2="11.3123" y2="39.0827" gradientUnits="userSpaceOnUse">
      <stop stop-color="white" stop-opacity="0"/>
      <stop offset="1" stop-color="white"/>
    </linearGradient>
    <linearGradient id="paint7_linear_2465_20678" x1="21.7365" y1="19.7578" x2="11.3123" y2="39.0827" gradientUnits="userSpaceOnUse">
      <stop stop-color="white" stop-opacity="0"/>
      <stop offset="1" stop-color="white"/>
    </linearGradient>
  </defs>
</svg>