<svg width="282" height="168" viewBox="0 0 282 168" fill="none" xmlns="http://www.w3.org/2000/svg">
<rect width="282" height="168" fill="url(#paint0_linear_601_22181)"/>
<path fill-rule="evenodd" clip-rule="evenodd" d="M55.4527 105.1H226.707C230.107 105.1 232.862 107.868 232.862 111.289C232.862 114.706 230.107 117.478 226.707 117.478H55.4527C52.0618 117.478 49.3066 114.706 49.3066 111.289C49.3066 107.868 52.0618 105.1 55.4527 105.1ZM55.4527 128.529H226.707C230.107 128.529 232.862 131.301 232.862 134.718C232.862 138.139 230.107 140.907 226.707 140.907H55.4527C52.0618 140.907 49.3066 138.139 49.3066 134.718C49.3066 131.301 52.0618 128.529 55.4527 128.529Z" fill="#E7F0FF"/>
<path fill-rule="evenodd" clip-rule="evenodd" d="M97.2699 80.357C91.059 85.3439 84.1864 87.8265 76.5568 87.8265C68.9532 87.8265 62.0805 85.3439 55.8652 80.357V70.4351H97.2699V80.357Z" fill="#E7E8EE"/>
<path fill-rule="evenodd" clip-rule="evenodd" d="M76.5551 81.3345C61.5252 81.3345 49.3066 69.1202 49.3066 54.0644C49.3066 39.0345 61.5252 26.8159 76.5551 26.8159C91.611 26.8159 103.829 39.0345 103.829 54.0644C103.829 69.1202 91.611 81.3345 76.5551 81.3345Z" fill="#F1F1F7"/>
<path fill-rule="evenodd" clip-rule="evenodd" d="M52.0332 59.8687H101.102V70.7724H52.0332V59.8687Z" fill="#F1F1F7"/>
<path fill-rule="evenodd" clip-rule="evenodd" d="M76.7241 75.8848C64.7002 75.8848 54.9297 66.1143 54.9297 54.0601C54.9297 42.0361 64.7002 32.2656 76.7241 32.2656C88.774 32.2656 98.5445 42.0361 98.5445 54.0601C98.5445 66.1143 88.774 75.8848 76.7241 75.8848Z" fill="#D3DAF6"/>
<path fill-rule="evenodd" clip-rule="evenodd" d="M69.807 59.4883L82.7781 59.5272C83.6864 59.5272 84.4346 60.2711 84.4346 61.1794V62.0098L68.172 61.9795V61.1491C68.172 60.2408 68.8944 59.4883 69.807 59.4883ZM63.5701 64.4925H89.5642C91.636 64.4925 93.2925 65.2364 93.2925 66.149V66.9794H59.8418V66.149C59.8418 65.2364 61.4983 64.4925 63.5701 64.4925Z" fill="#F1F1F7"/>
<path fill-rule="evenodd" clip-rule="evenodd" d="M68.4355 61.9829H84.6997V64.4918H68.4355V61.9829Z" fill="#E4E5E8"/>
<path fill-rule="evenodd" clip-rule="evenodd" d="M79.4528 46.742L76.5679 45.1633L73.6744 46.742L74.2497 43.5241L71.8535 41.2101L75.1493 40.6911L76.5679 37.7197L78.0688 40.6911L81.2824 41.2101L78.9684 43.5241L79.4528 46.742Z" fill="white"/>
<path fill-rule="evenodd" clip-rule="evenodd" d="M78.8047 83.0821C76.0755 83.0821 73.8438 80.8762 73.8438 78.1211C73.8438 75.3962 76.0755 73.1602 78.8047 73.1602C81.5598 73.1602 83.7656 75.3962 83.7656 78.1211C83.7656 80.8762 81.5598 83.0821 78.8047 83.0821Z" fill="white"/>
<path fill-rule="evenodd" clip-rule="evenodd" d="M63.7957 43.4157L62.5371 42.2739L64.2066 42.0273L65.0241 40.4443L65.7593 42.0273L67.4202 42.2739L66.1962 43.4157L66.5206 45.0809L65.0241 44.3456L63.4411 45.0809L63.7957 43.4157ZM86.6239 45.0809L86.9742 43.4157L85.7243 42.2739L87.3851 42.0273L88.2026 40.4443L88.9421 42.0273L90.5987 42.2739L89.379 43.4157L89.7034 45.0809L88.2026 44.3456L86.6239 45.0809ZM69.5914 49.2114L68.3371 48.0653L69.998 47.823L70.8154 46.2401L71.555 47.823L73.2159 48.0653L71.9919 49.2114L72.3163 50.8766L70.8154 50.137L69.2368 50.8766L69.5914 49.2114ZM81.1828 49.2114L79.9285 48.0653L81.5937 47.823L82.4112 46.2401L83.1421 47.823L84.8073 48.0653L83.5833 49.2114L83.9077 50.8766L82.4112 50.137L80.8281 50.8766L81.1828 49.2114Z" fill="white"/>
<path d="M122.036 39.1659H123.478V41.7099H128.713V48.8127H127.316V47.9745H123.478V52.9008H122.036V47.9745H118.213V48.8127H116.816V41.7099H122.036V39.1659ZM118.213 46.6068H122.036V43.0775H118.213V46.6068ZM123.478 46.6068H127.316V43.0775H123.478V46.6068ZM131.066 47.8715H136.742V46.548H138.154V47.8715H143.889V49.2244H138.154V52.8126H136.742V49.2244H131.066V47.8715ZM141.904 46.4745H139.183C138.198 46.4745 137.713 45.9892 137.713 45.0481V44.1804C137.095 44.4304 136.463 44.6657 135.816 44.8863L135.021 43.7246C135.992 43.401 136.889 43.0775 137.713 42.7246V39.4306H139.051V42.107C140.433 41.4011 141.565 40.6511 142.477 39.8276L143.418 40.7982C142.168 41.857 140.712 42.7834 139.051 43.5775V44.7687C139.051 45.0628 139.227 45.2098 139.58 45.2098H141.639C141.962 45.2098 142.212 45.1216 142.374 44.9745C142.565 44.7981 142.698 44.2393 142.757 43.3275L144.065 43.7687C143.918 45.0628 143.683 45.8422 143.359 46.1069C143.036 46.3421 142.551 46.4745 141.904 46.4745ZM132.977 43.3422C132.448 43.7687 131.889 44.1804 131.301 44.5628L130.86 43.1363C132.654 42.004 133.992 40.6805 134.86 39.1659L136.036 39.71C135.595 40.5482 135.021 41.3423 134.33 42.0923V46.9451H132.977V43.3422ZM152.83 39.2541C152.83 40.5482 152.786 41.6364 152.727 42.5481C153.58 46.4598 155.697 49.445 159.05 51.5038L158.124 52.7243C155.3 50.842 153.33 48.3127 152.212 45.1657C151.242 48.2245 149.212 50.7538 146.124 52.7538L145.271 51.5038C149.242 49.0921 151.286 45.7833 151.403 41.5629C151.403 40.5776 151.418 39.8129 151.418 39.2541H152.83ZM162.977 47.4009V50.9009C164.183 50.6509 165.388 50.3126 166.594 49.9009L166.918 51.2244C165.506 51.6803 163.712 52.1214 161.565 52.5332L161.197 51.2097C161.433 51.0626 161.565 50.842 161.565 50.5479V39.6953H172.3V44.3128H168.3C168.359 44.9451 168.447 45.5186 168.535 46.048H173.212V47.4009H168.844C168.932 47.6804 169.021 47.945 169.124 48.1803C169.579 49.2244 170.05 49.9744 170.535 50.445C171.006 50.8862 171.447 51.1067 171.859 51.1214C171.991 51.1214 172.109 50.9891 172.212 50.7391C172.315 50.4744 172.403 49.8715 172.491 48.9303L173.741 49.6068C173.535 50.8567 173.3 51.6655 173.05 52.0332C172.815 52.4008 172.506 52.592 172.153 52.6067C171.447 52.592 170.726 52.2538 169.976 51.592C169.212 50.9156 168.55 49.945 167.977 48.6803C167.8 48.2833 167.653 47.8568 167.521 47.4009H162.977ZM166.918 44.3128H162.977V46.048H167.197C167.08 45.4892 166.991 44.9157 166.918 44.3128ZM170.932 41.0335H162.977V42.9893H170.932V41.0335ZM175.712 42.0923H178.27V39.1806H179.667V42.0923H183.491V39.2394H184.888V42.0923H187.461V43.4452H184.888V46.6363H188.182V48.0039H174.976V46.6363H178.27V43.4452H175.712V42.0923ZM179.667 46.6363H183.491V43.4452H179.667V46.6363ZM179.359 48.2686L180.417 49.2244C179.197 50.592 177.697 51.7832 175.918 52.8126L174.947 51.5479C176.697 50.6067 178.167 49.5185 179.359 48.2686ZM183.932 48.298C185.623 49.445 187.05 50.5626 188.226 51.6803L187.108 52.7979C186.108 51.7097 184.711 50.5479 182.917 49.2833L183.932 48.298ZM202.476 40.107V52.1802H201.123V51.1067H197.932V52.3567H196.593V40.107H202.476ZM197.932 49.7832H201.123V41.4158H197.932V49.7832ZM189.932 43.151H192.388V41.3864C191.711 41.4893 191.02 41.5629 190.344 41.6217L189.902 40.3717C192.167 40.1952 193.991 39.8276 195.388 39.2982L196.049 40.4599C195.299 40.7246 194.535 40.9599 193.741 41.1364V43.151H196.138V44.4598H193.741V45.0481C194.564 45.7686 195.402 46.5774 196.255 47.4745L195.432 48.6803C194.77 47.7392 194.211 46.9892 193.741 46.401V52.6508H192.388V46.6951C191.799 47.9303 191.035 49.0627 190.123 50.0921L189.52 48.5627C190.814 47.3862 191.77 46.0333 192.388 44.5334V44.4598H189.932V43.151ZM207.343 42.1217H214.622V43.3863H211.696V45.1951H214.167V46.4304H211.696V48.4744H213.196C212.931 47.8862 212.652 47.3862 212.358 46.9451L213.461 46.5921C213.799 47.0627 214.093 47.5627 214.343 48.1215L213.549 48.4744H215.049V49.7391H206.946V48.4744H210.284V46.4304H207.814V45.1951H210.284V43.3863H207.343V42.1217ZM217.167 39.7835V52.7685H215.755V52.2097H206.226V52.7685H204.814V39.7835H217.167ZM206.226 50.9009H215.755V41.107H206.226V50.9009Z" fill="#D3DAF6"/>
<path d="M118.728 68.7593C118.551 71.2593 117.978 73.4357 116.978 75.318L115.875 74.3327C116.875 72.4945 117.39 70.127 117.404 67.2447V62.2154H128.522V66.0535H124.478V67.48H129.095V68.7593H124.478V70.2446H128.125V75.3327H126.786V74.7004H121.037V75.3327H119.698V70.2446H123.125V68.7593H118.728ZM123.125 66.0535H118.787V67.48H123.125V66.0535ZM121.037 73.4357H126.786V71.5093H121.037V73.4357ZM127.139 63.4948H118.787V64.7889H127.139V63.4948ZM140.918 69.8917V73.3916C142.124 73.1416 143.33 72.8034 144.536 72.3916L144.859 73.7151C143.448 74.171 141.654 74.6121 139.507 75.0239L139.139 73.7004C139.374 73.5533 139.507 73.3328 139.507 73.0386V62.186H150.242V66.8035H146.242C146.301 67.4358 146.389 68.0094 146.477 68.5388H151.153V69.8917H146.786C146.874 70.1711 146.962 70.4358 147.065 70.6711C147.521 71.7152 147.992 72.4651 148.477 72.9357C148.948 73.3769 149.389 73.5975 149.801 73.6122C149.933 73.6122 150.051 73.4798 150.153 73.2298C150.256 72.9651 150.345 72.3622 150.433 71.421L151.683 72.0975C151.477 73.3475 151.242 74.1563 150.992 74.5239C150.756 74.8915 150.448 75.0827 150.095 75.0974C149.389 75.0827 148.668 74.7445 147.918 74.0827C147.154 73.4063 146.492 72.4357 145.918 71.171C145.742 70.774 145.595 70.3475 145.462 69.8917H140.918ZM144.859 66.8035H140.918V68.5388H145.139C145.021 67.9799 144.933 67.4064 144.859 66.8035ZM148.874 63.5242H140.918V65.48H148.874V63.5242ZM165.712 61.5683L167.182 61.7742C167.094 62.1566 166.962 62.5095 166.8 62.8477H170.976V69.0535C171.594 68.3035 172.065 67.5388 172.373 66.7447L173.565 67.4947C172.859 68.8035 171.991 69.9358 170.976 70.8769V73.9063C170.976 74.8474 170.535 75.318 169.668 75.318H168.094L167.727 73.9798L169.212 74.0533C169.462 74.0533 169.594 73.8916 169.594 73.5975V72.0093L168.844 72.4945C166.8 73.7004 164.315 74.568 161.388 75.068L160.756 73.8033C164.403 73.1563 167.08 72.2446 168.756 71.0681H160.668V69.774H162.344V62.8477H165.33C165.491 62.436 165.624 62.0095 165.712 61.5683ZM163.741 69.774H169.594V68.5829H163.741V69.774ZM163.741 67.4064H169.594V66.3476H163.741V67.4064ZM163.741 65.1859H169.594V64.083H163.741V65.1859ZM188.961 68.7005H187.211V67.4211C187.005 67.6564 186.785 67.8917 186.579 68.0976L185.506 67.1564C186.873 65.8329 187.903 64.0536 188.579 61.8477L189.873 62.3624C189.182 64.4212 188.314 66.0829 187.27 67.3476H193.917C193.917 70.6416 193.844 72.6857 193.696 73.4651C193.549 74.5386 192.902 75.0827 191.755 75.0827C191.447 75.0827 190.932 75.0533 190.197 75.0239L189.858 73.7004C190.505 73.7592 191.064 73.7886 191.535 73.7886C192.02 73.7886 192.299 73.4651 192.373 72.8181C192.461 72.4063 192.52 71.024 192.549 68.7005H190.329C190.079 70.2299 189.741 71.4652 189.329 72.4063C188.8 73.4504 188.005 74.3916 186.961 75.2298L186.064 74.0827C186.947 73.3769 187.623 72.5975 188.079 71.7446C188.461 70.9652 188.755 69.9505 188.961 68.7005ZM185.403 61.6419L186.667 62.2301C186.3 63.333 185.829 64.3918 185.241 65.4065V75.318H183.829V67.48C183.403 68.0094 182.947 68.5241 182.461 69.024L182.02 67.5535C183.55 65.8624 184.667 63.8918 185.403 61.6419ZM192.388 61.6566C193.035 63.7448 194.152 65.4506 195.755 66.7741L194.814 67.877C193.079 66.4359 191.873 64.5977 191.197 62.333L192.388 61.6566ZM213.24 63.6565H209.226V62.2889H217.564V63.6565H214.667V67.4358H217.358V68.7446H214.667V73.421H217.858V74.7886H208.77V73.421H210.152V65.8771H211.52V73.421H213.24V63.6565ZM206.24 61.833C207.152 62.5683 207.946 63.2889 208.593 64.0095L207.637 64.98C207.064 64.2742 206.27 63.5389 205.27 62.7595L206.24 61.833ZM204.226 66.0976H207.593V72.1416C207.99 71.7887 208.417 71.3769 208.873 70.9358L209.24 72.421C208.358 73.2739 207.417 74.0386 206.417 74.7151L205.887 73.4504C206.123 73.2445 206.255 72.9945 206.255 72.7004V67.4358H204.226V66.0976Z" fill="#D3DAF6"/>
<defs>
<linearGradient id="paint0_linear_601_22181" x1="29.7538" y1="79.7379" x2="268.191" y2="83.9805" gradientUnits="userSpaceOnUse">
<stop stop-color="#F2F7FF"/>
<stop offset="0.619128" stop-color="#FBF8FB"/>
<stop offset="1" stop-color="#F2F7FF"/>
</linearGradient>
</defs>
</svg>
