<svg width="282" height="168" viewBox="0 0 282 168" fill="none" xmlns="http://www.w3.org/2000/svg">
<rect width="282" height="168" fill="url(#paint0_linear_601_22992)"/>
<path fill-rule="evenodd" clip-rule="evenodd" d="M231.853 67.7925V77.5716L219.699 88.7522L207.541 77.5716V67.7925H231.853Z" fill="#FEE9E8"/>
<path fill-rule="evenodd" clip-rule="evenodd" d="M184.654 88.6399V98.9424C184.654 100.383 185.87 101.602 187.37 101.602H252.023C253.524 101.602 254.739 100.439 254.739 98.9424V88.6399C254.683 86.2048 252.94 84.0725 250.505 83.4886L233.836 79.6695C233.611 79.6133 233.386 79.5008 233.144 79.3884L219.658 87.1434L206.7 79.0337C206.362 79.3148 205.947 79.557 205.48 79.6695L188.811 83.4886C186.393 84.0725 184.654 86.1486 184.654 88.6399Z" fill="#EDF1F6"/>
<path fill-rule="evenodd" clip-rule="evenodd" d="M207.541 79.3206V69.5977H231.853V71.2282C231.853 71.2282 222.882 84.6968 207.541 79.3206Z" fill="#F5DDDD"/>
<path fill-rule="evenodd" clip-rule="evenodd" d="M204.958 64.2217L203.795 39.6289H237.998L236.835 64.2217C236.722 66.4881 235.619 68.6247 233.725 70.0088L228.275 74.0009C226.891 75.0476 225.204 75.5753 223.539 75.5753H218.258C216.532 75.5753 214.902 74.9914 213.518 74.0009L208.085 70.0088C206.23 68.6247 205.071 66.5444 204.958 64.2217Z" fill="#FFEEEE"/>
<path fill-rule="evenodd" clip-rule="evenodd" d="M242.586 97.9518C242.586 96.1698 243.39 95.3766 244.852 94.1007L254.031 86.1245C254.74 87.4547 254.74 88.4823 254.74 89.702L254.74 98.9984C254.74 100.443 253.524 101.602 252.023 101.602H242.586V97.9518Z" fill="#E3E9F0"/>
<path fill-rule="evenodd" clip-rule="evenodd" d="M223.171 101.602H216.221L217.081 90.27H222.289L223.171 101.602Z" fill="#C7CDE5"/>
<path fill-rule="evenodd" clip-rule="evenodd" d="M216.221 88.0737H223.171V90.6212C223.171 91.4257 222.475 92.1177 221.597 92.1177H217.778C216.913 92.1177 216.221 91.4257 216.221 90.6212V88.0737Z" fill="#C7CDE5"/>
<path fill-rule="evenodd" clip-rule="evenodd" d="M207.372 77.2359L219.695 88.0964C219.695 88.0964 216.23 89.8394 211.996 93.2477C211.135 93.9613 209.807 93.6585 209.34 92.6854L203.549 80.1727L205.404 77.4608C205.815 76.8207 206.736 76.7083 207.372 77.2359ZM232.021 77.2359C232.657 76.7083 233.596 76.8207 233.989 77.4608L235.845 80.1727L230.053 92.6854C229.586 93.6585 228.258 93.9613 227.398 93.2477C223.163 89.8394 219.695 88.0964 219.695 88.0964L232.021 77.2359Z" fill="#E3E9F0"/>
<path fill-rule="evenodd" clip-rule="evenodd" d="M229.418 39.8147L228.146 31.0865C242.623 25.8055 241.464 47.6995 241.464 47.7557C237.978 51.4451 238.726 56.951 238.726 56.951L236.537 53.599C236.312 53.2443 236.126 52.7772 236.126 52.3274C236.014 49.7799 235.205 40.9219 229.418 39.8147Z" fill="#9499AD"/>
<path fill-rule="evenodd" clip-rule="evenodd" d="M239.464 56.1191C239.931 54.3977 238.604 52.7671 236.692 52.7671C234.949 52.7671 233.565 54.1511 233.79 55.7817L234.611 61.7937C234.724 62.6025 235.416 63.1821 236.281 63.1821C237.029 63.1821 237.721 62.7106 237.907 62.0186L239.464 56.1191Z" fill="#FFEEEE"/>
<path fill-rule="evenodd" clip-rule="evenodd" d="M220.549 24.6551C216.392 24.6551 208.507 25.9267 204.403 28.0244L206.371 29.3522C197.396 35.9481 199.083 47.1675 199.083 47.1675C201.743 49.8448 201.743 56.4364 201.743 56.4364L204.403 53.7764C204.403 53.7764 203.356 46.1382 208.451 43.1754C213.153 40.4592 217.253 41.8476 221.466 41.8476C232.702 41.8476 235.89 37.6911 235.306 32.5961C235.025 29.9361 230.964 24.4302 220.549 24.6551Z" fill="#9499AD"/>
<path fill-rule="evenodd" clip-rule="evenodd" d="M203.543 41.6187C203.543 41.6187 202.137 36.0522 206.315 30.2651C197.401 36.861 199.083 48.154 199.083 48.154C201.743 50.8139 201.743 57.4617 201.743 57.4617L204.403 54.8017C204.403 54.8017 203.357 47.1029 208.395 44.1662C213.075 41.3721 217.141 42.834 221.297 42.834C223.097 42.834 224.727 42.7043 226.111 42.4794C217.478 42.7605 212.439 36.2209 203.543 41.6187Z" fill="#9499AD"/>
<path fill-rule="evenodd" clip-rule="evenodd" d="M202.772 62.0186L201.215 56.1191C200.748 54.3977 202.076 52.7671 203.988 52.7671C205.731 52.7671 207.115 54.1512 206.89 55.7817L206.068 61.7937C205.955 62.6025 205.263 63.1821 204.398 63.1821C203.65 63.1821 202.958 62.7106 202.772 62.0186Z" fill="#FFEEEE"/>
<path fill-rule="evenodd" clip-rule="evenodd" d="M227.658 99.5669H237.1C237.848 99.5669 238.428 100.203 238.484 101.007V101.602H226.33V101.007C226.33 100.203 226.91 99.5669 227.658 99.5669Z" fill="#E3E9F0"/>
<path fill-rule="evenodd" clip-rule="evenodd" d="M46.9205 22.1406H31.9424C29.3573 22.1406 27.2617 24.2414 27.2617 26.8328C27.2617 29.4242 29.3573 31.525 31.9424 31.525H46.9205C49.5056 31.525 51.6012 29.4242 51.6012 26.8328C51.6012 24.2414 49.5056 22.1406 46.9205 22.1406ZM67.6524 22.2423H96.3085C98.9155 22.2423 101.034 24.34 101.069 26.9535C101.099 29.6103 98.9588 31.7817 96.3085 31.7817H67.6524C65.0453 31.7817 62.9268 29.684 62.8922 27.0705C62.8619 24.4137 65.002 22.2423 67.6524 22.2423ZM165.761 46.4355H160.655C158.069 46.4355 155.972 48.5332 155.968 51.1251C155.964 53.7212 158.065 55.8319 160.655 55.8319H165.761C168.346 55.8319 170.443 53.7299 170.443 51.1381C170.443 48.5419 168.351 46.4355 165.761 46.4355ZM67.5484 46.4659H96.4121C98.9586 46.4659 101.034 48.5203 101.068 51.0731C101.099 53.6779 99.0062 55.8016 96.4121 55.8016H67.5484C65.0019 55.8016 62.9266 53.7472 62.892 51.1901C62.8618 48.5896 64.9543 46.4659 67.5484 46.4659ZM128.523 71.1768H67.2503C64.8204 71.1768 62.8576 73.1662 62.8835 75.602C62.9138 78.0031 64.8594 79.9318 67.2503 79.9318H128.523C130.953 79.9318 132.916 77.9381 132.89 75.5023C132.859 73.1055 130.914 71.1768 128.523 71.1768ZM67.5574 104.801H153.582C156.189 104.801 158.299 102.686 158.299 100.073C158.299 97.4594 156.189 95.34 153.582 95.34H67.5574C64.9503 95.34 62.8361 97.4594 62.8361 100.073C62.8361 102.686 64.9503 104.801 67.5574 104.801ZM249.892 145.937H121.882C119.206 145.937 117.04 143.761 117.04 141.078C117.04 138.395 119.206 136.224 121.882 136.224H249.892C252.568 136.224 254.739 138.395 254.739 141.078C254.739 143.761 252.568 145.937 249.892 145.937ZM31.9424 46.4415H46.9205C49.5056 46.4415 51.6012 48.5423 51.6012 51.1337C51.6012 53.7252 49.5056 55.8259 46.9205 55.8259H31.9424C29.3573 55.8259 27.2617 53.7252 27.2617 51.1337C27.2617 48.5423 29.3573 46.4415 31.9424 46.4415ZM46.9205 70.8622H31.9424C29.3573 70.8622 27.2617 72.9629 27.2617 75.5543C27.2617 78.1458 29.3573 80.2465 31.9424 80.2465H46.9205C49.5056 80.2465 51.6012 78.1458 51.6012 75.5543C51.6012 72.9629 49.5056 70.8622 46.9205 70.8622ZM31.9424 95.1994H46.9205C49.5056 95.1994 51.6012 97.3001 51.6012 99.8916C51.6012 102.483 49.5056 104.584 46.9205 104.584H31.9424C29.3573 104.584 27.2617 102.483 27.2617 99.8916C27.2617 97.3001 29.3573 95.1994 31.9424 95.1994ZM88.1103 136.388H31.9424C29.3573 136.388 27.2617 138.489 27.2617 141.08C27.2617 143.672 29.3573 145.772 31.9424 145.772H88.1103C90.6954 145.772 92.791 143.672 92.791 141.08C92.791 138.489 90.6954 136.388 88.1103 136.388ZM129.3 46.4415H140.533C143.118 46.4415 145.214 48.5423 145.214 51.1337C145.214 53.7252 143.118 55.8259 140.533 55.8259H129.3C126.715 55.8259 124.619 53.7252 124.619 51.1337C124.619 48.5423 126.715 46.4415 129.3 46.4415Z" fill="#E7F0FF"/>
<defs>
<linearGradient id="paint0_linear_601_22992" x1="29.7538" y1="79.7379" x2="268.191" y2="83.9805" gradientUnits="userSpaceOnUse">
<stop stop-color="#F2F7FF"/>
<stop offset="0.619128" stop-color="#FBF8FB"/>
<stop offset="1" stop-color="#F2F7FF"/>
</linearGradient>
</defs>
</svg>
