<svg width="216" height="216" viewBox="0 0 216 216" fill="none" xmlns="http://www.w3.org/2000/svg">
<path d="M8.64 0H0V8.64H8.64V0Z" fill="black"/>
<path d="M17.28 0H8.64V8.64H17.28V0Z" fill="black"/>
<path d="M25.92 0H17.28V8.64H25.92V0Z" fill="black"/>
<path d="M34.56 0H25.92V8.64H34.56V0Z" fill="black"/>
<path d="M43.2 0H34.56V8.64H43.2V0Z" fill="black"/>
<path d="M51.84 0H43.2V8.64H51.84V0Z" fill="black"/>
<path d="M60.48 0H51.84V8.64H60.48V0Z" fill="black"/>
<path d="M77.76 0H69.12V8.64H77.76V0Z" fill="black"/>
<path d="M86.4 0H77.76V8.64H86.4V0Z" fill="black"/>
<path d="M103.68 0H95.04V8.64H103.68V0Z" fill="black"/>
<path d="M120.96 0H112.32V8.64H120.96V0Z" fill="black"/>
<path d="M129.6 0H120.96V8.64H129.6V0Z" fill="black"/>
<path d="M138.24 0H129.6V8.64H138.24V0Z" fill="black"/>
<path d="M146.88 0H138.24V8.64H146.88V0Z" fill="black"/>
<path d="M164.16 0H155.52V8.64H164.16V0Z" fill="black"/>
<path d="M172.8 0H164.16V8.64H172.8V0Z" fill="black"/>
<path d="M181.44 0H172.8V8.64H181.44V0Z" fill="black"/>
<path d="M190.08 0H181.44V8.64H190.08V0Z" fill="black"/>
<path d="M198.72 0H190.08V8.64H198.72V0Z" fill="black"/>
<path d="M207.36 0H198.72V8.64H207.36V0Z" fill="black"/>
<path d="M216 0H207.36V8.64H216V0Z" fill="black"/>
<path d="M8.64 8.64H0V17.28H8.64V8.64Z" fill="black"/>
<path d="M60.48 8.64H51.84L51.84 17.28H60.48V8.64Z" fill="black"/>
<path d="M86.4 8.64H77.76V17.28H86.4V8.64Z" fill="black"/>
<path d="M95.04 8.64H86.4V17.28H95.04V8.64Z" fill="black"/>
<path d="M103.68 8.64H95.04V17.28H103.68V8.64Z" fill="black"/>
<path d="M129.6 8.64H120.96V17.28H129.6V8.64Z" fill="black"/>
<path d="M164.16 8.64H155.52V17.28H164.16V8.64Z" fill="black"/>
<path d="M216 8.64H207.36V17.28H216V8.64Z" fill="black"/>
<path d="M8.64 17.28H0V25.92H8.64V17.28Z" fill="black"/>
<path d="M25.92 17.28H17.28V25.92H25.92V17.28Z" fill="black"/>
<path d="M34.56 17.28H25.92V25.92H34.56V17.28Z" fill="black"/>
<path d="M43.2 17.28H34.56V25.92H43.2V17.28Z" fill="black"/>
<path d="M60.48 17.28H51.84V25.92H60.48V17.28Z" fill="black"/>
<path d="M86.4 17.28H77.76V25.92H86.4V17.28Z" fill="black"/>
<path d="M95.04 17.28H86.4V25.92H95.04V17.28Z" fill="black"/>
<path d="M112.32 17.28H103.68V25.92H112.32V17.28Z" fill="black"/>
<path d="M129.6 17.28H120.96V25.92H129.6V17.28Z" fill="black"/>
<path d="M164.16 17.28H155.52V25.92H164.16V17.28Z" fill="black"/>
<path d="M181.44 17.28H172.8V25.92H181.44V17.28Z" fill="black"/>
<path d="M190.08 17.28H181.44V25.92H190.08V17.28Z" fill="black"/>
<path d="M198.72 17.28H190.08V25.92H198.72V17.28Z" fill="black"/>
<path d="M216 17.28H207.36V25.92H216V17.28Z" fill="black"/>
<path d="M8.64 25.92H0V34.56H8.64V25.92Z" fill="black"/>
<path d="M25.92 25.92H17.28V34.56H25.92V25.92Z" fill="black"/>
<path d="M34.56 25.92H25.92V34.56H34.56V25.92Z" fill="black"/>
<path d="M43.2 25.92H34.56V34.56H43.2V25.92Z" fill="black"/>
<path d="M60.48 25.92H51.84V34.56H60.48V25.92Z" fill="black"/>
<path d="M77.76 25.92H69.12V34.56H77.76V25.92Z" fill="black"/>
<path d="M86.4 25.92H77.76V34.56H86.4V25.92Z" fill="black"/>
<path d="M95.04 25.92H86.4V34.56H95.04V25.92Z" fill="black"/>
<path d="M112.32 25.92H103.68V34.56H112.32V25.92Z" fill="black"/>
<path d="M146.88 25.92H138.24V34.56H146.88V25.92Z" fill="black"/>
<path d="M164.16 25.92H155.52V34.56H164.16V25.92Z" fill="black"/>
<path d="M181.44 25.92H172.8V34.56H181.44V25.92Z" fill="black"/>
<path d="M190.08 25.92H181.44V34.56H190.08V25.92Z" fill="black"/>
<path d="M198.72 25.92H190.08V34.56H198.72V25.92Z" fill="black"/>
<path d="M216 25.92H207.36V34.56H216V25.92Z" fill="black"/>
<path d="M8.64 34.56H0V43.2H8.64V34.56Z" fill="black"/>
<path d="M25.92 34.56H17.28V43.2H25.92V34.56Z" fill="black"/>
<path d="M34.56 34.56H25.92V43.2H34.56V34.56Z" fill="black"/>
<path d="M43.2 34.56H34.56V43.2H43.2V34.56Z" fill="black"/>
<path d="M60.48 34.56H51.84V43.2H60.48V34.56Z" fill="black"/>
<path d="M77.76 34.56H69.12V43.2H77.76V34.56Z" fill="black"/>
<path d="M86.4 34.56H77.76V43.2H86.4V34.56Z" fill="black"/>
<path d="M95.04 34.56H86.4V43.2H95.04V34.56Z" fill="black"/>
<path d="M112.32 34.56H103.68V43.2H112.32V34.56Z" fill="black"/>
<path d="M120.96 34.56H112.32V43.2H120.96V34.56Z" fill="black"/>
<path d="M129.6 34.56H120.96V43.2H129.6V34.56Z" fill="black"/>
<path d="M138.24 34.56H129.6V43.2H138.24V34.56Z" fill="black"/>
<path d="M164.16 34.56H155.52V43.2H164.16V34.56Z" fill="black"/>
<path d="M181.44 34.56H172.8V43.2H181.44V34.56Z" fill="black"/>
<path d="M190.08 34.56H181.44V43.2H190.08V34.56Z" fill="black"/>
<path d="M198.72 34.56H190.08V43.2H198.72V34.56Z" fill="black"/>
<path d="M216 34.56H207.36V43.2H216V34.56Z" fill="black"/>
<path d="M8.64 43.2H0V51.84H8.64V43.2Z" fill="black"/>
<path d="M60.48 43.2H51.84V51.84H60.48V43.2Z" fill="black"/>
<path d="M77.76 43.2H69.12V51.84H77.76V43.2Z" fill="black"/>
<path d="M86.4 43.2H77.76V51.84H86.4V43.2Z" fill="black"/>
<path d="M120.96 43.2H112.32V51.84H120.96V43.2Z" fill="black"/>
<path d="M129.6 43.2H120.96V51.84H129.6V43.2Z" fill="black"/>
<path d="M138.24 43.2H129.6V51.84H138.24V43.2Z" fill="black"/>
<path d="M164.16 43.2H155.52V51.84H164.16V43.2Z" fill="black"/>
<path d="M216 43.2H207.36V51.84H216V43.2Z" fill="black"/>
<path d="M8.64 51.84H0V60.48H8.64V51.84Z" fill="black"/>
<path d="M17.28 51.84L8.64 51.84V60.48H17.28V51.84Z" fill="black"/>
<path d="M25.92 51.84H17.28V60.48H25.92V51.84Z" fill="black"/>
<path d="M34.56 51.84H25.92V60.48H34.56V51.84Z" fill="black"/>
<path d="M43.2 51.84H34.56V60.48H43.2V51.84Z" fill="black"/>
<path d="M51.84 51.84L43.2 51.84V60.48H51.84L51.84 51.84Z" fill="black"/>
<path d="M60.48 51.84H51.84L51.84 60.48H60.48V51.84Z" fill="black"/>
<path d="M77.76 51.84H69.12V60.48H77.76V51.84Z" fill="black"/>
<path d="M95.04 51.84L86.4 51.84V60.48H95.04V51.84Z" fill="black"/>
<path d="M112.32 51.84L103.68 51.84V60.48H112.32V51.84Z" fill="black"/>
<path d="M129.6 51.84H120.96V60.48H129.6V51.84Z" fill="black"/>
<path d="M146.88 51.84L138.24 51.84V60.48H146.88V51.84Z" fill="black"/>
<path d="M164.16 51.84H155.52V60.48H164.16V51.84Z" fill="black"/>
<path d="M172.8 51.84L164.16 51.84V60.48H172.8V51.84Z" fill="black"/>
<path d="M181.44 51.84H172.8V60.48H181.44V51.84Z" fill="black"/>
<path d="M190.08 51.84H181.44V60.48H190.08V51.84Z" fill="black"/>
<path d="M198.72 51.84H190.08V60.48H198.72V51.84Z" fill="black"/>
<path d="M207.36 51.84L198.72 51.84V60.48H207.36V51.84Z" fill="black"/>
<path d="M216 51.84H207.36V60.48H216V51.84Z" fill="black"/>
<path d="M77.76 60.48H69.12V69.12H77.76V60.48Z" fill="black"/>
<path d="M95.04 60.48H86.4V69.12H95.04V60.48Z" fill="black"/>
<path d="M103.68 60.48H95.04V69.12H103.68V60.48Z" fill="black"/>
<path d="M112.32 60.48H103.68V69.12H112.32V60.48Z" fill="black"/>
<path d="M120.96 60.48H112.32V69.12H120.96V60.48Z" fill="black"/>
<path d="M129.6 60.48H120.96V69.12H129.6V60.48Z" fill="black"/>
<path d="M146.88 60.48H138.24V69.12H146.88V60.48Z" fill="black"/>
<path d="M8.64 69.12H0V77.76H8.64V69.12Z" fill="black"/>
<path d="M17.28 69.12H8.64V77.76H17.28V69.12Z" fill="black"/>
<path d="M25.92 69.12H17.28V77.76H25.92V69.12Z" fill="black"/>
<path d="M43.2 69.12H34.56V77.76H43.2V69.12Z" fill="black"/>
<path d="M60.48 69.12H51.84V77.76H60.48V69.12Z" fill="black"/>
<path d="M77.76 69.12H69.12V77.76H77.76V69.12Z" fill="black"/>
<path d="M86.4 69.12H77.76V77.76H86.4V69.12Z" fill="black"/>
<path d="M103.68 69.12H95.04V77.76H103.68V69.12Z" fill="black"/>
<path d="M120.96 69.12H112.32V77.76H120.96V69.12Z" fill="black"/>
<path d="M138.24 69.12H129.6L129.6 77.76H138.24V69.12Z" fill="black"/>
<path d="M155.52 69.12H146.88V77.76H155.52V69.12Z" fill="black"/>
<path d="M164.16 69.12H155.52V77.76H164.16V69.12Z" fill="black"/>
<path d="M172.8 69.12H164.16V77.76H172.8V69.12Z" fill="black"/>
<path d="M181.44 69.12H172.8V77.76H181.44V69.12Z" fill="black"/>
<path d="M190.08 69.12H181.44V77.76H190.08V69.12Z" fill="black"/>
<path d="M216 69.12H207.36V77.76H216V69.12Z" fill="black"/>
<path d="M8.64 77.76H0V86.4H8.64V77.76Z" fill="black"/>
<path d="M25.92 77.76H17.28V86.4H25.92V77.76Z" fill="black"/>
<path d="M34.56 77.76H25.92V86.4H34.56V77.76Z" fill="black"/>
<path d="M43.2 77.76H34.56V86.4H43.2V77.76Z" fill="black"/>
<path d="M51.84 77.76H43.2V86.4H51.84L51.84 77.76Z" fill="black"/>
<path d="M95.04 77.76H86.4V86.4H95.04V77.76Z" fill="black"/>
<path d="M112.32 77.76H103.68V86.4H112.32V77.76Z" fill="black"/>
<path d="M120.96 77.76H112.32V86.4H120.96V77.76Z" fill="black"/>
<path d="M129.6 77.76H120.96V86.4H129.6L129.6 77.76Z" fill="black"/>
<path d="M146.88 77.76H138.24V86.4H146.88V77.76Z" fill="black"/>
<path d="M164.16 77.76H155.52V86.4H164.16V77.76Z" fill="black"/>
<path d="M207.36 77.76H198.72V86.4H207.36V77.76Z" fill="black"/>
<path d="M8.64 86.4H0V95.04H8.64V86.4Z" fill="black"/>
<path d="M25.92 86.4H17.28V95.04H25.92V86.4Z" fill="black"/>
<path d="M51.84 86.4H43.2V95.04H51.84V86.4Z" fill="black"/>
<path d="M60.48 86.4H51.84V95.04H60.48V86.4Z" fill="black"/>
<path d="M77.76 86.4H69.12V95.04H77.76V86.4Z" fill="black"/>
<path d="M86.4 86.4H77.76V95.04H86.4V86.4Z" fill="black"/>
<path d="M146.88 86.4H138.24V95.04H146.88V86.4Z" fill="black"/>
<path d="M155.52 86.4H146.88V95.04H155.52V86.4Z" fill="black"/>
<path d="M164.16 86.4H155.52V95.04H164.16V86.4Z" fill="black"/>
<path d="M198.72 86.4H190.08V95.04H198.72V86.4Z" fill="black"/>
<path d="M207.36 86.4H198.72V95.04H207.36V86.4Z" fill="black"/>
<path d="M8.64 95.04H0V103.68H8.64V95.04Z" fill="black"/>
<path d="M17.28 95.04H8.64V103.68H17.28V95.04Z" fill="black"/>
<path d="M43.2 95.04H34.56V103.68H43.2V95.04Z" fill="black"/>
<path d="M69.12 95.04H60.48V103.68H69.12V95.04Z" fill="black"/>
<path d="M77.76 95.04H69.12V103.68H77.76V95.04Z" fill="black"/>
<path d="M86.4 95.04H77.76V103.68H86.4V95.04Z" fill="black"/>
<path d="M129.6 95.04H120.96V103.68H129.6V95.04Z" fill="black"/>
<path d="M138.24 95.04H129.6V103.68H138.24V95.04Z" fill="black"/>
<path d="M155.52 95.04H146.88V103.68H155.52V95.04Z" fill="black"/>
<path d="M164.16 95.04H155.52V103.68H164.16V95.04Z" fill="black"/>
<path d="M17.28 103.68H8.64V112.32H17.28V103.68Z" fill="black"/>
<path d="M60.48 103.68H51.84V112.32H60.48V103.68Z" fill="black"/>
<path d="M69.12 103.68H60.48V112.32H69.12V103.68Z" fill="black"/>
<path d="M103.68 103.68H95.04V112.32H103.68V103.68Z" fill="black"/>
<path d="M112.32 103.68H103.68V112.32H112.32V103.68Z" fill="black"/>
<path d="M129.6 103.68H120.96V112.32H129.6V103.68Z" fill="black"/>
<path d="M155.52 103.68H146.88V112.32H155.52V103.68Z" fill="black"/>
<path d="M172.8 103.68H164.16V112.32H172.8V103.68Z" fill="black"/>
<path d="M181.44 103.68H172.8V112.32H181.44V103.68Z" fill="black"/>
<path d="M198.72 103.68H190.08V112.32H198.72V103.68Z" fill="black"/>
<path d="M69.12 112.32H60.48V120.96H69.12V112.32Z" fill="black"/>
<path d="M77.76 112.32H69.12V120.96H77.76V112.32Z" fill="black"/>
<path d="M86.4 112.32H77.76V120.96H86.4V112.32Z" fill="black"/>
<path d="M95.04 112.32H86.4V120.96H95.04V112.32Z" fill="black"/>
<path d="M103.68 112.32H95.04V120.96H103.68V112.32Z" fill="black"/>
<path d="M112.32 112.32H103.68V120.96H112.32V112.32Z" fill="black"/>
<path d="M120.96 112.32H112.32V120.96H120.96V112.32Z" fill="black"/>
<path d="M129.6 112.32H120.96V120.96H129.6V112.32Z" fill="black"/>
<path d="M155.52 112.32H146.88V120.96H155.52V112.32Z" fill="black"/>
<path d="M181.44 112.32H172.8V120.96H181.44V112.32Z" fill="black"/>
<path d="M216 112.32H207.36V120.96H216V112.32Z" fill="black"/>
<path d="M43.2 120.96H34.56V129.6H43.2V120.96Z" fill="black"/>
<path d="M60.48 120.96H51.84V129.6H60.48V120.96Z" fill="black"/>
<path d="M120.96 120.96H112.32V129.6H120.96V120.96Z" fill="black"/>
<path d="M146.88 120.96H138.24V129.6H146.88V120.96Z" fill="black"/>
<path d="M155.52 120.96H146.88V129.6H155.52V120.96Z" fill="black"/>
<path d="M172.8 120.96H164.16V129.6H172.8V120.96Z" fill="black"/>
<path d="M181.44 120.96H172.8V129.6H181.44V120.96Z" fill="black"/>
<path d="M190.08 120.96H181.44V129.6H190.08V120.96Z" fill="black"/>
<path d="M198.72 120.96H190.08V129.6H198.72V120.96Z" fill="black"/>
<path d="M207.36 120.96H198.72V129.6H207.36V120.96Z" fill="black"/>
<path d="M216 120.96H207.36V129.6H216V120.96Z" fill="black"/>
<path d="M8.64 129.6H0V138.24H8.64V129.6Z" fill="black"/>
<path d="M25.92 129.6H17.28V138.24H25.92V129.6Z" fill="black"/>
<path d="M43.2 129.6H34.56V138.24H43.2V129.6Z" fill="black"/>
<path d="M51.84 129.6H43.2V138.24H51.84L51.84 129.6Z" fill="black"/>
<path d="M69.12 129.6L60.48 129.6V138.24H69.12V129.6Z" fill="black"/>
<path d="M95.04 129.6H86.4V138.24H95.04V129.6Z" fill="black"/>
<path d="M112.32 129.6L103.68 129.6V138.24H112.32V129.6Z" fill="black"/>
<path d="M138.24 129.6L129.6 129.6V138.24H138.24V129.6Z" fill="black"/>
<path d="M164.16 129.6H155.52V138.24H164.16V129.6Z" fill="black"/>
<path d="M181.44 129.6H172.8V138.24H181.44V129.6Z" fill="black"/>
<path d="M190.08 129.6H181.44V138.24H190.08V129.6Z" fill="black"/>
<path d="M8.64 138.24H0V146.88H8.64V138.24Z" fill="black"/>
<path d="M17.28 138.24H8.64V146.88H17.28V138.24Z" fill="black"/>
<path d="M25.92 138.24H17.28V146.88H25.92V138.24Z" fill="black"/>
<path d="M34.56 138.24H25.92V146.88H34.56V138.24Z" fill="black"/>
<path d="M43.2 138.24H34.56V146.88H43.2V138.24Z" fill="black"/>
<path d="M51.84 138.24H43.2V146.88H51.84V138.24Z" fill="black"/>
<path d="M60.48 138.24H51.84V146.88H60.48V138.24Z" fill="black"/>
<path d="M69.12 138.24H60.48V146.88H69.12V138.24Z" fill="black"/>
<path d="M86.4 138.24H77.76V146.88H86.4V138.24Z" fill="black"/>
<path d="M95.04 138.24H86.4V146.88H95.04V138.24Z" fill="black"/>
<path d="M103.68 138.24H95.04V146.88H103.68V138.24Z" fill="black"/>
<path d="M112.32 138.24H103.68V146.88H112.32V138.24Z" fill="black"/>
<path d="M120.96 138.24H112.32V146.88H120.96V138.24Z" fill="black"/>
<path d="M129.6 138.24H120.96V146.88H129.6L129.6 138.24Z" fill="black"/>
<path d="M146.88 138.24H138.24V146.88H146.88V138.24Z" fill="black"/>
<path d="M155.52 138.24H146.88V146.88H155.52V138.24Z" fill="black"/>
<path d="M164.16 138.24H155.52V146.88H164.16V138.24Z" fill="black"/>
<path d="M172.8 138.24H164.16V146.88H172.8V138.24Z" fill="black"/>
<path d="M181.44 138.24H172.8V146.88H181.44V138.24Z" fill="black"/>
<path d="M190.08 138.24H181.44V146.88H190.08V138.24Z" fill="black"/>
<path d="M198.72 138.24H190.08V146.88H198.72V138.24Z" fill="black"/>
<path d="M216 138.24H207.36V146.88H216V138.24Z" fill="black"/>
<path d="M77.76 146.88H69.12V155.52H77.76V146.88Z" fill="black"/>
<path d="M103.68 146.88H95.04V155.52H103.68V146.88Z" fill="black"/>
<path d="M138.24 146.88H129.6L129.6 155.52H138.24V146.88Z" fill="black"/>
<path d="M146.88 146.88H138.24V155.52H146.88V146.88Z" fill="black"/>
<path d="M181.44 146.88H172.8V155.52H181.44V146.88Z" fill="black"/>
<path d="M190.08 146.88H181.44V155.52H190.08V146.88Z" fill="black"/>
<path d="M198.72 146.88H190.08V155.52H198.72V146.88Z" fill="black"/>
<path d="M8.64 155.52H0V164.16H8.64V155.52Z" fill="black"/>
<path d="M17.28 155.52H8.64V164.16H17.28V155.52Z" fill="black"/>
<path d="M25.92 155.52H17.28V164.16H25.92V155.52Z" fill="black"/>
<path d="M34.56 155.52H25.92V164.16H34.56V155.52Z" fill="black"/>
<path d="M43.2 155.52H34.56V164.16H43.2V155.52Z" fill="black"/>
<path d="M51.84 155.52H43.2V164.16H51.84V155.52Z" fill="black"/>
<path d="M60.48 155.52H51.84V164.16H60.48V155.52Z" fill="black"/>
<path d="M112.32 155.52H103.68V164.16H112.32V155.52Z" fill="black"/>
<path d="M129.6 155.52H120.96V164.16H129.6L129.6 155.52Z" fill="black"/>
<path d="M146.88 155.52H138.24V164.16H146.88V155.52Z" fill="black"/>
<path d="M164.16 155.52H155.52V164.16H164.16V155.52Z" fill="black"/>
<path d="M181.44 155.52H172.8V164.16H181.44V155.52Z" fill="black"/>
<path d="M190.08 155.52H181.44V164.16H190.08V155.52Z" fill="black"/>
<path d="M8.64 164.16H0V172.8H8.64V164.16Z" fill="black"/>
<path d="M60.48 164.16H51.84L51.84 172.8H60.48V164.16Z" fill="black"/>
<path d="M95.04 164.16H86.4V172.8H95.04V164.16Z" fill="black"/>
<path d="M112.32 164.16H103.68V172.8H112.32V164.16Z" fill="black"/>
<path d="M138.24 164.16H129.6L129.6 172.8H138.24V164.16Z" fill="black"/>
<path d="M146.88 164.16H138.24V172.8H146.88V164.16Z" fill="black"/>
<path d="M181.44 164.16H172.8V172.8H181.44V164.16Z" fill="black"/>
<path d="M198.72 164.16H190.08V172.8H198.72V164.16Z" fill="black"/>
<path d="M207.36 164.16H198.72V172.8H207.36V164.16Z" fill="black"/>
<path d="M8.64 172.8H0V181.44H8.64V172.8Z" fill="black"/>
<path d="M25.92 172.8H17.28V181.44H25.92V172.8Z" fill="black"/>
<path d="M34.56 172.8H25.92V181.44H34.56V172.8Z" fill="black"/>
<path d="M43.2 172.8H34.56V181.44H43.2V172.8Z" fill="black"/>
<path d="M60.48 172.8H51.84V181.44H60.48V172.8Z" fill="black"/>
<path d="M77.76 172.8H69.12V181.44H77.76V172.8Z" fill="black"/>
<path d="M86.4 172.8H77.76V181.44H86.4V172.8Z" fill="black"/>
<path d="M95.04 172.8H86.4V181.44H95.04V172.8Z" fill="black"/>
<path d="M120.96 172.8H112.32V181.44H120.96V172.8Z" fill="black"/>
<path d="M146.88 172.8H138.24V181.44H146.88V172.8Z" fill="black"/>
<path d="M155.52 172.8H146.88V181.44H155.52V172.8Z" fill="black"/>
<path d="M164.16 172.8H155.52V181.44H164.16V172.8Z" fill="black"/>
<path d="M172.8 172.8H164.16V181.44H172.8V172.8Z" fill="black"/>
<path d="M181.44 172.8H172.8V181.44H181.44V172.8Z" fill="black"/>
<path d="M198.72 172.8H190.08V181.44H198.72V172.8Z" fill="black"/>
<path d="M207.36 172.8H198.72V181.44H207.36V172.8Z" fill="black"/>
<path d="M216 172.8H207.36V181.44H216V172.8Z" fill="black"/>
<path d="M8.64 181.44H0V190.08H8.64V181.44Z" fill="black"/>
<path d="M25.92 181.44H17.28V190.08H25.92V181.44Z" fill="black"/>
<path d="M34.56 181.44H25.92V190.08H34.56V181.44Z" fill="black"/>
<path d="M43.2 181.44H34.56V190.08H43.2V181.44Z" fill="black"/>
<path d="M60.48 181.44H51.84V190.08H60.48V181.44Z" fill="black"/>
<path d="M86.4 181.44H77.76V190.08H86.4V181.44Z" fill="black"/>
<path d="M112.32 181.44H103.68V190.08H112.32V181.44Z" fill="black"/>
<path d="M120.96 181.44H112.32V190.08H120.96V181.44Z" fill="black"/>
<path d="M129.6 181.44H120.96V190.08H129.6V181.44Z" fill="black"/>
<path d="M138.24 181.44H129.6V190.08H138.24V181.44Z" fill="black"/>
<path d="M146.88 181.44H138.24V190.08H146.88V181.44Z" fill="black"/>
<path d="M155.52 181.44H146.88V190.08H155.52V181.44Z" fill="black"/>
<path d="M164.16 181.44H155.52V190.08H164.16V181.44Z" fill="black"/>
<path d="M172.8 181.44H164.16V190.08H172.8V181.44Z" fill="black"/>
<path d="M181.44 181.44H172.8V190.08H181.44V181.44Z" fill="black"/>
<path d="M207.36 181.44H198.72V190.08H207.36V181.44Z" fill="black"/>
<path d="M216 181.44H207.36V190.08H216V181.44Z" fill="black"/>
<path d="M8.64 190.08H0V198.72H8.64V190.08Z" fill="black"/>
<path d="M25.92 190.08H17.28V198.72H25.92V190.08Z" fill="black"/>
<path d="M34.56 190.08H25.92V198.72H34.56V190.08Z" fill="black"/>
<path d="M43.2 190.08H34.56V198.72H43.2V190.08Z" fill="black"/>
<path d="M60.48 190.08H51.84V198.72H60.48V190.08Z" fill="black"/>
<path d="M77.76 190.08H69.12V198.72H77.76V190.08Z" fill="black"/>
<path d="M86.4 190.08H77.76V198.72H86.4V190.08Z" fill="black"/>
<path d="M95.04 190.08H86.4V198.72H95.04V190.08Z" fill="black"/>
<path d="M103.68 190.08H95.04V198.72H103.68V190.08Z" fill="black"/>
<path d="M120.96 190.08H112.32V198.72H120.96V190.08Z" fill="black"/>
<path d="M138.24 190.08H129.6L129.6 198.72H138.24V190.08Z" fill="black"/>
<path d="M146.88 190.08H138.24V198.72H146.88V190.08Z" fill="black"/>
<path d="M155.52 190.08H146.88V198.72H155.52V190.08Z" fill="black"/>
<path d="M207.36 190.08H198.72V198.72H207.36V190.08Z" fill="black"/>
<path d="M8.64 198.72H0V207.36H8.64V198.72Z" fill="black"/>
<path d="M60.48 198.72H51.84V207.36H60.48V198.72Z" fill="black"/>
<path d="M77.76 198.72H69.12V207.36H77.76V198.72Z" fill="black"/>
<path d="M86.4 198.72H77.76V207.36H86.4V198.72Z" fill="black"/>
<path d="M120.96 198.72H112.32V207.36H120.96V198.72Z" fill="black"/>
<path d="M129.6 198.72H120.96V207.36H129.6L129.6 198.72Z" fill="black"/>
<path d="M138.24 198.72H129.6L129.6 207.36H138.24V198.72Z" fill="black"/>
<path d="M172.8 198.72H164.16V207.36H172.8V198.72Z" fill="black"/>
<path d="M181.44 198.72H172.8V207.36H181.44V198.72Z" fill="black"/>
<path d="M198.72 198.72H190.08V207.36H198.72V198.72Z" fill="black"/>
<path d="M207.36 198.72H198.72V207.36H207.36V198.72Z" fill="black"/>
<path d="M8.64 207.36H0V216H8.64V207.36Z" fill="black"/>
<path d="M17.28 207.36H8.64V216H17.28V207.36Z" fill="black"/>
<path d="M25.92 207.36H17.28V216H25.92V207.36Z" fill="black"/>
<path d="M34.56 207.36H25.92V216H34.56V207.36Z" fill="black"/>
<path d="M43.2 207.36H34.56V216H43.2V207.36Z" fill="black"/>
<path d="M51.84 207.36H43.2V216H51.84L51.84 207.36Z" fill="black"/>
<path d="M60.48 207.36H51.84L51.84 216H60.48V207.36Z" fill="black"/>
<path d="M77.76 207.36H69.12V216H77.76V207.36Z" fill="black"/>
<path d="M95.04 207.36H86.4V216H95.04V207.36Z" fill="black"/>
<path d="M112.32 207.36H103.68V216H112.32V207.36Z" fill="black"/>
<path d="M129.6 207.36H120.96V216H129.6V207.36Z" fill="black"/>
<path d="M146.88 207.36H138.24V216H146.88V207.36Z" fill="black"/>
<path d="M164.16 207.36H155.52V216H164.16V207.36Z" fill="black"/>
<path d="M172.8 207.36H164.16V216H172.8V207.36Z" fill="black"/>
<path d="M190.08 207.36H181.44V216H190.08V207.36Z" fill="black"/>
<path d="M198.72 207.36H190.08V216H198.72V207.36Z" fill="black"/>
<path d="M207.36 207.36H198.72V216H207.36V207.36Z" fill="black"/>
<path d="M216 207.36H207.36V216H216V207.36Z" fill="black"/>
</svg>
