<svg width="117" height="20" viewBox="0 0 117 20" fill="none" xmlns="http://www.w3.org/2000/svg">
<path d="M5.68008 19V6.075H0.555078V1.5H16.7051V6.075H11.5801V19H5.68008ZM23.9203 19.25C22.3703 19.25 20.9953 18.95 19.7953 18.35C18.612 17.7333 17.6786 16.8917 16.9953 15.825C16.312 14.7583 15.9703 13.5333 15.9703 12.15C15.9703 10.7667 16.312 9.54167 16.9953 8.475C17.6786 7.40833 18.612 6.575 19.7953 5.975C20.9953 5.375 22.3703 5.075 23.9203 5.075C25.4703 5.075 26.8453 5.375 28.0453 5.975C29.2453 6.575 30.1786 7.40833 30.8453 8.475C31.5286 9.54167 31.8703 10.7667 31.8703 12.15C31.8703 13.5333 31.5286 14.7583 30.8453 15.825C30.1786 16.8917 29.2453 17.7333 28.0453 18.35C26.8453 18.95 25.4703 19.25 23.9203 19.25ZM23.9203 14.85C24.337 14.85 24.712 14.75 25.0453 14.55C25.3786 14.35 25.6453 14.05 25.8453 13.65C26.0453 13.2333 26.1453 12.7333 26.1453 12.15C26.1453 11.55 26.0453 11.0583 25.8453 10.675C25.6453 10.275 25.3786 9.975 25.0453 9.775C24.712 9.575 24.337 9.475 23.9203 9.475C23.5036 9.475 23.1286 9.575 22.7953 9.775C22.462 9.975 22.1953 10.275 21.9953 10.675C21.7953 11.0583 21.6953 11.55 21.6953 12.15C21.6953 12.7333 21.7953 13.2333 21.9953 13.65C22.1953 14.05 22.462 14.35 22.7953 14.55C23.1286 14.75 23.5036 14.85 23.9203 14.85ZM38.3637 16.75L38.4887 10.1L43.2137 5.325H49.8887L43.6387 11.875L40.8137 14.15L38.3637 16.75ZM33.6387 19V0.449999H39.2887V19H33.6387ZM43.5137 19L39.7637 14.25L43.2387 9.975L50.3387 19H43.5137ZM58.4006 19.25C56.7339 19.25 55.2756 18.9417 54.0256 18.325C52.7923 17.7083 51.8339 16.8667 51.1506 15.8C50.4673 14.7167 50.1256 13.5 50.1256 12.15C50.1256 10.7667 50.4589 9.54167 51.1256 8.475C51.8089 7.40833 52.7339 6.575 53.9006 5.975C55.0839 5.375 56.4089 5.075 57.8756 5.075C59.2256 5.075 60.4673 5.34167 61.6006 5.875C62.7506 6.40833 63.6673 7.2 64.3506 8.25C65.0506 9.3 65.4006 10.6 65.4006 12.15C65.4006 12.35 65.3923 12.575 65.3756 12.825C65.3589 13.0583 65.3423 13.275 65.3256 13.475H54.8006V10.75H62.3256L60.2006 11.475C60.2006 10.9417 60.1006 10.4917 59.9006 10.125C59.7173 9.74167 59.4589 9.45 59.1256 9.25C58.7923 9.03333 58.3923 8.925 57.9256 8.925C57.4589 8.925 57.0506 9.03333 56.7006 9.25C56.3673 9.45 56.1089 9.74167 55.9256 10.125C55.7423 10.4917 55.6506 10.9417 55.6506 11.475V12.325C55.6506 12.9083 55.7673 13.4083 56.0006 13.825C56.2339 14.2417 56.5673 14.5583 57.0006 14.775C57.4339 14.975 57.9589 15.075 58.5756 15.075C59.2089 15.075 59.7256 14.9917 60.1256 14.825C60.5423 14.6583 60.9756 14.4083 61.4256 14.075L64.3756 17.05C63.7089 17.7667 62.8839 18.3167 61.9006 18.7C60.9339 19.0667 59.7673 19.25 58.4006 19.25ZM76.6836 5.075C77.7336 5.075 78.6836 5.29167 79.5336 5.725C80.3836 6.14167 81.0503 6.8 81.5336 7.7C82.0336 8.6 82.2836 9.76667 82.2836 11.2V19H76.6336V12.175C76.6336 11.325 76.4836 10.725 76.1836 10.375C75.8836 10.0083 75.4753 9.825 74.9586 9.825C74.5753 9.825 74.2169 9.91667 73.8836 10.1C73.5669 10.2667 73.3086 10.55 73.1086 10.95C72.9253 11.35 72.8336 11.8917 72.8336 12.575V19H67.1836V5.325H72.5586V9.325L71.4836 8.175C72.0169 7.14167 72.7336 6.36667 73.6336 5.85C74.5503 5.33333 75.5669 5.075 76.6836 5.075ZM94.1074 19V3.55L96.6324 5.95H91.1074V1.5H100.007V19H94.1074ZM104.657 19L111.257 3.6L112.832 6.075H104.532L106.832 3.4V8.625H101.957V1.5H116.932V5.125L111.107 19H104.657Z" fill="#060707"/>
</svg>
