<svg width="24" height="24" viewBox="0 0 24 24" fill="none" xmlns="http://www.w3.org/2000/svg">
<path d="M11.9998 14.25C7.52562 14.25 3.79185 11.0727 2.93486 6.85083L1.46484 7.14923C1.84072 9.00091 2.69233 10.6798 3.88661 12.0527L1.46957 14.4697L2.53023 15.5304L4.94723 13.1134C5.99213 14.0225 7.21436 14.7331 8.55524 15.1864L7.7723 18.3181L9.22751 18.6819L10.0066 15.5656C10.6525 15.6867 11.3187 15.75 11.9998 15.75C12.681 15.75 13.3473 15.6867 13.9932 15.5656L14.7723 18.6819L16.2275 18.3181L15.4446 15.1863C16.7854 14.733 18.0076 14.0224 19.0525 13.1133L21.4696 15.5304L22.5302 14.4697L20.1131 12.0526C21.3073 10.6797 22.1589 9.00087 22.5348 7.14923L21.0648 6.85083C20.2078 11.0727 16.474 14.25 11.9998 14.25Z" fill="#FCFCFD"/>
</svg>
