<svg width="24" height="24" viewBox="0 0 24 24" fill="none" xmlns="http://www.w3.org/2000/svg">
<g id="icon-download-line">
<g id="Outlined">
<path d="M14.5 6.75H9.5V5.25H14.5V6.75Z" fill="#FCFCFD"/>
<path d="M11.25 11V16.1893L9.53033 14.4697L8.46967 15.5303L11.4697 18.5303C11.7626 18.8232 12.2374 18.8232 12.5303 18.5303L15.5303 15.5303L14.4697 14.4697L12.75 16.1893V11H11.25Z" fill="#FCFCFD"/>
<path fill-rule="evenodd" clip-rule="evenodd" d="M5.25 4C5.25 3.0335 6.0335 2.25 7 2.25H17C17.9665 2.25 18.75 3.0335 18.75 4V20C18.75 20.9665 17.9665 21.75 17 21.75H7C6.0335 21.75 5.25 20.9665 5.25 20V4ZM7 3.75C6.86193 3.75 6.75 3.86193 6.75 4V20C6.75 20.1381 6.86193 20.25 7 20.25H17C17.1381 20.25 17.25 20.1381 17.25 20V4C17.25 3.86193 17.1381 3.75 17 3.75H7Z" fill="#FCFCFD"/>
</g>
</g>
</svg>
