<svg width="195" height="108" viewBox="0 0 195 108" fill="none" xmlns="http://www.w3.org/2000/svg">
<rect x="0.5" y="0.5" width="194" height="107" rx="4.5" stroke="#9747FF" stroke-dasharray="10 5"/>
<path d="M31.4697 28.4697C31.7626 28.1768 32.2375 28.1768 32.5304 28.4697L38.0304 33.9697L36.9697 35.0303L32.0001 30.0607L27.0304 35.0303L25.9697 33.9697L31.4697 28.4697Z" fill="black"/>
<path d="M30.0607 76.0001L35.0303 71.0304L33.9697 69.9697L28.4697 75.4697C28.1768 75.7626 28.1768 76.2375 28.4697 76.5304L33.9697 82.0304L35.0303 80.9697L30.0607 76.0001Z" fill="black"/>
<path d="M74.0304 69.9697L79.5304 75.4697C79.671 75.6104 79.7501 75.8011 79.7501 76.0001C79.7501 76.199 79.671 76.3897 79.5304 76.5304L74.0304 82.0304L72.9697 80.9697L77.9394 76.0001L72.9697 71.0304L74.0304 69.9697Z" fill="black"/>
<path d="M75.4697 35.5304C75.7626 35.8233 76.2375 35.8233 76.5304 35.5304L82.0304 30.0304L80.9697 28.9697L76.0001 33.9394L71.0304 28.9697L69.9697 30.0304L75.4697 35.5304Z" fill="black"/>
<path d="M120 30L124 34H116L120 30Z" fill="black"/>
<path d="M117 76L121 72V80L117 76Z" fill="black"/>
<path d="M163 34L159 30H167L163 34Z" fill="black"/>
<path d="M165 76L161 80V72L165 76Z" fill="black"/>
</svg>
