<svg width="24" height="24" viewBox="0 0 24 24" fill="none" xmlns="http://www.w3.org/2000/svg">
<path fill-rule="evenodd" clip-rule="evenodd" d="M12 8.25C9.92893 8.25 8.25 9.92893 8.25 12C8.25 14.0711 9.92893 15.75 12 15.75C14.0711 15.75 15.75 14.0711 15.75 12C15.75 9.92893 14.0711 8.25 12 8.25ZM9.75 12C9.75 10.7574 10.7574 9.75 12 9.75C13.2426 9.75 14.25 10.7574 14.25 12C14.25 13.2426 13.2426 14.25 12 14.25C10.7574 14.25 9.75 13.2426 9.75 12Z" fill="#FCFCFD"/>
<path fill-rule="evenodd" clip-rule="evenodd" d="M11.9999 3.25C6.79828 3.25 2.46104 6.94367 1.46494 11.8508C1.44495 11.9493 1.44495 12.0507 1.46494 12.1492C2.46104 17.0563 6.79828 20.75 11.9999 20.75C17.2015 20.75 21.5388 17.0563 22.5349 12.1492C22.5549 12.0507 22.5549 11.9493 22.5349 11.8508C21.5388 6.94367 17.2015 3.25 11.9999 3.25ZM11.9999 19.25C7.57858 19.25 3.88028 16.1473 2.96654 12C3.88028 7.85273 7.57858 4.75 11.9999 4.75C16.4213 4.75 20.1196 7.85273 21.0333 12C20.1196 16.1473 16.4213 19.25 11.9999 19.25Z" fill="#FCFCFD"/>
</svg>
