<svg xmlns="http://www.w3.org/2000/svg" width="16" height="16" viewBox="0 0 16 16" fill="none">
  <path d="M11.6867 6.35372L10.9796 5.64661L7.6665 8.95972L5.68672 6.97994L4.97962 7.68705L7.6665 10.3739L11.6867 6.35372Z" fill="#00A171"/>
  <path fill-rule="evenodd" clip-rule="evenodd" d="M8.12111 0.848425C8.04148 0.82852 7.95819 0.82852 7.87857 0.848425L2.54524 2.18176C2.32265 2.2374 2.1665 2.4374 2.1665 2.66683V8.77925C2.1665 10.3295 2.96446 11.7706 4.2784 12.5933L7.73449 14.7573C7.89679 14.8589 8.10288 14.8589 8.26518 14.7573L11.7213 12.5933C13.0352 11.7706 13.8332 10.3295 13.8332 8.77925V2.66683C13.8332 2.4374 13.677 2.2374 13.4544 2.18176L8.12111 0.848425ZM3.1665 8.77925V3.05722L7.99984 1.84888L12.8332 3.05722V8.77925C12.8332 9.985 12.2125 11.1058 11.1906 11.7457L7.99984 13.7436L4.80909 11.7457C3.78714 11.1058 3.1665 9.985 3.1665 8.77925Z" fill="#00A171"/>
</svg>