<svg xmlns="http://www.w3.org/2000/svg" width="16" height="16" viewBox="0 0 16 16" fill="none">
  <path d="M7.35226 14.4676C8.956 14.6283 10.5622 14.1873 11.8592 13.2304C13.1561 12.2735 14.0513 10.8688 14.3709 9.28904C14.6905 7.70929 14.4118 6.06712 13.5889 4.68127C12.766 3.29542 11.4575 2.26474 9.9175 1.78927C8.37746 1.3138 6.7157 1.42746 5.25474 2.10818C4.36324 2.52357 3.58531 3.13204 2.97194 3.8807V2.5614L1.97194 2.5614L1.97194 5.66751L2.93261 5.86188C3.46279 4.60535 4.44089 3.59062 5.67709 3.01462C6.91329 2.43862 8.31939 2.34245 9.6225 2.74477C10.9256 3.14709 12.0328 4.01921 12.7291 5.19185C13.4254 6.36449 13.6612 7.75401 13.3908 9.09073C13.1203 10.4274 12.3629 11.616 11.2654 12.4257C10.168 13.2354 8.80892 13.6085 7.45191 13.4726C6.0949 13.3367 4.83678 12.7015 3.92174 11.6902C3.00669 10.679 2.5 9.3638 2.5 8H1.5C1.5 9.61177 2.09882 11.166 3.18023 12.3612C4.26165 13.5563 5.74852 14.307 7.35226 14.4676Z" fill="#E94359"/>
  <path d="M7.5 4.66667V8.20711L9.97978 10.6869L10.6869 9.97978L8.5 7.7929V4.66667H7.5Z" fill="#E94359"/>
</svg>