<svg width="24" height="24" viewBox="0 0 24 24" fill="none" xmlns="http://www.w3.org/2000/svg">
<path d="M11.2501 14V9.00003H12.7501V14H11.2501Z" fill="black"/>
<path d="M11.2501 18V16H12.7501V18H11.2501Z" fill="black"/>
<path fill-rule="evenodd" clip-rule="evenodd" d="M10.4953 5.0653C11.1735 3.92322 12.8267 3.92322 13.5048 5.0653L21.2481 18.1066C21.9407 19.2731 21.1 20.75 19.7434 20.75H4.25683C2.90016 20.75 2.05945 19.2731 2.75208 18.1066L10.4953 5.0653ZM12.2151 5.83111C12.1182 5.66795 11.882 5.66795 11.7851 5.83111L4.04186 18.8724C3.94292 19.039 4.06302 19.25 4.25683 19.25H19.7434C19.9372 19.25 20.0573 19.039 19.9583 18.8724L12.2151 5.83111Z" fill="black"/>
</svg>
