<svg width="24" height="24" viewBox="0 0 24 24" fill="none" xmlns="http://www.w3.org/2000/svg">
<path d="M5.83763 17.1018C6.15734 17.4876 6.51257 17.8428 6.89831 18.1625L4.75218 20.3086L3.69152 19.2479L5.83763 17.1018Z" fill="#FCFCFD"/>
<path d="M11.25 19.9653V23H12.75V19.9653C12.5031 19.9883 12.2529 20 12 20C11.7471 20 11.4969 19.9883 11.25 19.9653Z" fill="#FCFCFD"/>
<path d="M19.2479 20.3087L17.1017 18.1625C17.4874 17.8428 17.8427 17.4876 18.1624 17.1018L20.3085 19.248L19.2479 20.3087Z" fill="#FCFCFD"/>
<path d="M23 12.7501H19.9653C19.9883 12.5032 20 12.253 20 12C20 11.7471 19.9883 11.497 19.9653 11.2501H23V12.7501Z" fill="#FCFCFD"/>
<path d="M20.3085 4.75225L18.1625 6.89831C17.8428 6.51257 17.4876 6.15734 17.1018 5.83763L19.2479 3.69159L20.3085 4.75225Z" fill="#FCFCFD"/>
<path d="M12.75 1V4.03469C12.5031 4.01174 12.2529 4 12 4C11.7471 4 11.4969 4.01174 11.25 4.03469V1H12.75Z" fill="#FCFCFD"/>
<path d="M4.75218 3.69164L6.89817 5.83763C6.51244 6.15734 6.15722 6.51257 5.83752 6.8983L3.69152 4.7523L4.75218 3.69164Z" fill="#FCFCFD"/>
<path d="M1 11.2501H4.03468C4.01173 11.497 4 11.7471 4 12C4 12.253 4.01174 12.5032 4.0347 12.7501H1V11.2501Z" fill="#FCFCFD"/>
<path fill-rule="evenodd" clip-rule="evenodd" d="M12 6.25C8.82436 6.25 6.25 8.82436 6.25 12C6.25 15.1756 8.82436 17.75 12 17.75C15.1756 17.75 17.75 15.1756 17.75 12C17.75 8.82436 15.1756 6.25 12 6.25ZM7.75 12C7.75 9.65279 9.65279 7.75 12 7.75C14.3472 7.75 16.25 9.65279 16.25 12C16.25 14.3472 14.3472 16.25 12 16.25C9.65279 16.25 7.75 14.3472 7.75 12Z" fill="#FCFCFD"/>
</svg>
