<svg width="40" height="40" viewBox="0 0 40 40" fill="none" xmlns="http://www.w3.org/2000/svg">
<path d="M28.3339 7.16504L25.3726 12.1187H8.36909L6.28687 7.17589L28.3339 7.16504Z" fill="#FCFCFD"/>
<path d="M32.5513 18.5465C33.0785 19.7806 33.3715 21.1373 33.3715 22.5683C33.3715 24.8102 32.649 26.8831 31.4257 28.5731C29.5606 31.1577 26.5279 32.8337 23.1046 32.8337H13.8129L15.8951 27.8909H23.641C25.3108 27.8909 26.7884 27.077 27.6969 25.818C28.3373 24.9327 28.6923 23.8335 28.635 22.6474H18.1122L20.182 17.7263H25.5977C27.0427 17.7263 28.2272 16.5154 28.2272 15.0735C28.2272 13.9448 27.5078 12.9774 26.4985 12.613L29.4737 7.46094C31.9436 8.85012 33.6103 11.4998 33.6103 14.5355C33.6103 15.9976 33.2258 17.3666 32.5498 18.548L32.5513 18.5465Z" fill="#FCFCFD"/>
<path d="M12.8837 13.1221H20.8576L12.5519 32.8342H8.90222L12.8837 13.1221Z" fill="#FCFCFD"/>
</svg>
