<svg xmlns="http://www.w3.org/2000/svg" width="100" height="24" viewBox="0 0 100 24" fill="none">
  <path d="M3.60471 6.56586C3.82669 6.01776 3.93769 5.74371 4.1378 5.53436C4.31382 5.35021 4.53633 5.2005 4.77342 5.10667C5.04296 5 5.33925 5 5.93184 5H22.9551C23.5477 5 23.844 5 24.0271 5.10667C24.1882 5.2005 24.2894 5.35021 24.3163 5.53436C24.3468 5.74371 24.2358 6.01776 24.0138 6.56586L23.8616 6.94182C23.6396 7.48992 23.5286 7.76397 23.3285 7.97332C23.1525 8.15747 22.93 8.30718 22.6929 8.40101C22.4233 8.50768 22.127 8.50768 21.5345 8.50768H4.5112C3.91861 8.50768 3.62232 8.50768 3.43918 8.40101C3.27809 8.30718 3.17686 8.15747 3.15 7.97332C3.11946 7.76397 3.23046 7.48992 3.45244 6.94182L3.60471 6.56586Z" fill="white"/>
  <path d="M7.23543 8.50767H12.0229L8.40765 17.4341C8.18567 17.9822 8.07467 18.2563 7.87456 18.4656C7.69854 18.6498 7.47603 18.7995 7.23894 18.8933C6.9694 19 6.67311 19 6.08052 19H4.6789C4.08631 19 3.79002 19 3.60688 18.8933C3.44579 18.7995 3.34456 18.6498 3.3177 18.4656C3.28716 18.2563 3.39816 17.9822 3.62014 17.4341L7.23543 8.50767Z" fill="white"/>
  <path d="M14.318 8.50767H19.1055L17.7387 11.8826C17.5167 12.4307 17.4057 12.7047 17.2056 12.9141C17.0295 13.0982 16.807 13.2479 16.5699 13.3417C16.3004 13.4484 16.0041 13.4484 15.4115 13.4484H14.0099C13.4173 13.4484 13.121 13.4484 12.9379 13.3417C12.7768 13.2479 12.6756 13.0982 12.6487 12.9141C12.6182 12.7047 12.7292 12.4307 12.9512 11.8826L14.318 8.50767Z" fill="white"/>
  <path d="M15.2431 15.0143C15.4651 14.4662 15.5761 14.1921 15.7762 13.9828C15.9522 13.7986 16.1747 13.6489 16.4118 13.5551C16.6813 13.4484 16.9776 13.4484 17.5702 13.4484H18.9718C19.5644 13.4484 19.8607 13.4484 20.0438 13.5551C20.2049 13.6489 20.3062 13.7986 20.333 13.9828C20.3636 14.1921 20.2526 14.4662 20.0306 15.0143L19.0505 17.4341C18.8285 17.9822 18.7175 18.2563 18.5174 18.4656C18.3414 18.6498 18.1189 18.7995 17.8818 18.8933C17.6123 19 17.316 19 16.7234 19H15.3218C14.7292 19 14.4329 19 14.2498 18.8933C14.0887 18.7995 13.9874 18.6498 13.9606 18.4656C13.93 18.2563 14.041 17.9822 14.263 17.4341L15.2431 15.0143Z" fill="white"/>
  <path d="M86.0228 6.67125H91.8842C92.7692 6.67125 93.5251 6.75106 94.1518 6.91069C94.7913 7.05892 95.3087 7.27557 95.7039 7.56062C96.1003 7.83428 96.3815 8.16494 96.5475 8.55262C96.7136 8.9403 96.7719 9.36788 96.7227 9.83537C96.659 10.4397 96.4314 10.9642 96.0397 11.4089C95.6481 11.8536 95.096 12.1842 94.3836 12.4009C95.2276 12.5719 95.8645 12.9083 96.2943 13.41C96.7369 13.9003 96.9173 14.5331 96.8356 15.3085C96.7275 16.3347 96.2106 17.1499 95.285 17.7542C94.372 18.3472 92.9904 18.6436 91.14 18.6436H84.7614L86.0228 6.67125ZM87.8378 13.1705L87.3963 17.3609H91.2752C92.1371 17.3609 92.816 17.1898 93.3117 16.8478C93.8075 16.5057 94.0914 15.9926 94.1635 15.3085C94.2404 14.5787 94.067 14.0428 93.6433 13.7007C93.2208 13.3473 92.5786 13.1705 91.7166 13.1705H87.8378ZM91.3346 11.8878C93.0011 11.8878 93.9064 11.2036 94.0506 9.83537C94.1143 9.23105 93.9503 8.76926 93.5587 8.45C93.1798 8.11933 92.5766 7.954 91.7491 7.954H88.3874L87.9729 11.8878H91.3346Z" fill="white"/>
  <path d="M82.4415 18.6436H80.0279L80.5956 13.256C80.6821 12.4351 80.5371 11.8479 80.1606 11.4944C79.7853 11.1295 79.2068 10.9471 78.4253 10.9471H76.1842L75.3733 18.6436H72.9598L73.8968 9.74985H78.5515C80.195 9.74985 81.3762 10.0463 82.0953 10.6392C82.827 11.2207 83.1316 12.093 83.0091 13.256L82.4415 18.6436Z" fill="white"/>
  <path d="M66.6727 17.7885C67.2358 17.7885 67.769 17.6915 68.2721 17.4977C68.7867 17.3039 69.2982 17.0302 69.8067 16.6767L70.3881 17.7029C70.1493 17.8968 69.8721 18.0735 69.5565 18.2331C69.2524 18.3928 68.9219 18.5296 68.5651 18.6436C68.221 18.7462 67.862 18.8261 67.4883 18.8831C67.1133 18.9515 66.7419 18.9857 66.3741 18.9857C65.5581 18.9857 64.8225 18.8774 64.1672 18.6607C63.5223 18.4555 62.9852 18.1533 62.556 17.7542C62.1281 17.3438 61.8132 16.8421 61.6113 16.2492C61.4209 15.6562 61.3666 14.9721 61.4483 14.1967C61.5288 13.4328 61.7209 12.7544 62.0247 12.1614C62.3413 11.5571 62.7389 11.0554 63.2177 10.6563C63.7092 10.2459 64.2703 9.938 64.901 9.73276C65.533 9.51611 66.2167 9.40779 66.9523 9.40779C67.6418 9.40779 68.2804 9.51041 68.8679 9.71565C69.4554 9.92089 69.9522 10.2231 70.3584 10.6221C70.7658 11.0098 71.0722 11.483 71.2777 12.0417C71.4831 12.6004 71.5486 13.2333 71.4742 13.9402L71.348 15.1374H63.9868C64.025 16.0838 64.2811 16.7623 64.755 17.1727C65.2404 17.5832 65.8796 17.7885 66.6727 17.7885ZM66.8351 10.5195C66.5018 10.5195 66.1849 10.5822 65.8844 10.7076C65.5838 10.8331 65.31 11.0326 65.0628 11.3063C64.8271 11.5799 64.6174 11.9334 64.4339 12.3667C64.2618 12.8 64.1376 13.3245 64.0612 13.9402H68.8882C68.9507 13.3473 68.9358 12.8342 68.8436 12.4009C68.7513 11.9676 68.6046 11.6141 68.4036 11.3405C68.2153 11.0554 67.9783 10.8502 67.6927 10.7248C67.4198 10.5879 67.1339 10.5195 66.8351 10.5195Z" fill="white"/>
  <path d="M55.3585 14.7098H53.5483L53.1339 18.6436H50.7204L51.9818 6.67125H54.3953L53.6745 13.5126H55.4846L58.5532 9.74986H61.1391L57.6717 14.0257L60.3744 18.6436H57.6161L55.3585 14.7098Z" fill="white"/>
  <path d="M43.5576 17.874C43.9253 17.874 44.2773 17.8056 44.6136 17.6687C44.9498 17.5319 45.2536 17.321 45.525 17.0359C45.7976 16.7394 46.0274 16.3575 46.2146 15.89C46.4133 15.4225 46.5474 14.8581 46.6171 14.1967C46.6868 13.5354 46.6716 12.971 46.5714 12.5035C46.4827 12.036 46.3327 11.6597 46.1214 11.3747C45.9113 11.0782 45.6526 10.8616 45.3452 10.7248C45.0378 10.5879 44.7002 10.5195 44.3324 10.5195C43.9647 10.5195 43.6127 10.5879 43.2764 10.7248C42.9402 10.8616 42.6358 11.0782 42.3632 11.3747C42.0919 11.6597 41.8568 12.036 41.6582 12.5035C41.471 12.971 41.3426 13.5354 41.2729 14.1967C41.2032 14.8581 41.2127 15.4225 41.3014 15.89C41.4015 16.3575 41.5567 16.7394 41.7668 17.0359C41.9781 17.321 42.2374 17.5319 42.5448 17.6687C42.8522 17.8056 43.1898 17.874 43.5576 17.874ZM44.4496 9.40779C45.2196 9.40779 45.915 9.51611 46.5358 9.73276C47.1692 9.938 47.6942 10.2459 48.1107 10.6563C48.5284 11.0554 48.8318 11.5571 49.021 12.1614C49.2228 12.7544 49.2835 13.4328 49.203 14.1967C49.1213 14.9721 48.9171 15.6562 48.5903 16.2492C48.275 16.8421 47.8658 17.3438 47.3629 17.7542C46.8611 18.1533 46.2718 18.4555 45.5951 18.6607C44.9287 18.8774 44.2105 18.9857 43.4404 18.9857C42.6589 18.9857 41.9578 18.8774 41.337 18.6607C40.715 18.4555 40.1952 18.1533 39.7775 17.7542C39.361 17.3438 39.0519 16.8421 38.85 16.2492C38.6596 15.6562 38.6053 14.9721 38.687 14.1967C38.7675 13.4328 38.9654 12.7544 39.2807 12.1614C39.6087 11.5571 40.0236 11.0554 40.5253 10.6563C41.0283 10.2459 41.6124 9.938 42.2776 9.73276C42.9441 9.51611 43.668 9.40779 44.4496 9.40779Z" fill="white"/>
  <path d="M40.1124 7.954H35.4578L34.3315 18.6436H31.8318L32.9581 7.954H28.3034L28.4386 6.67125H40.2476L40.1124 7.954Z" fill="white"/>
</svg>