<svg width="100" height="24" viewBox="0 0 100 24" fill="none" xmlns="http://www.w3.org/2000/svg">
<path fill-rule="evenodd" clip-rule="evenodd" d="M17.0002 4.29919L15.2234 7.27136H5.02131L3.77197 4.30571L17.0002 4.29919ZM19.5307 11.1281C19.8469 11.8686 20.0228 12.6825 20.0228 13.5412C20.0228 14.8863 19.5893 16.1301 18.8553 17.144C17.7362 18.6948 15.9166 19.7004 13.8626 19.7004H8.28757L9.53691 16.7347H14.1845C15.1864 16.7347 16.0729 16.2463 16.618 15.491C17.0022 14.9598 17.2152 14.3002 17.1808 13.5886H10.8672L12.1091 10.636H15.3585C16.2255 10.636 16.9362 9.90943 16.9362 9.04429C16.9362 8.36707 16.5045 7.78659 15.8989 7.56798L17.6841 4.47673C19.166 5.31024 20.166 6.90005 20.166 8.7215C20.166 9.59873 19.9353 10.4201 19.5297 11.129L19.5307 11.1281ZM12.5144 7.87341H7.73009L5.34119 19.7007H7.53101L12.5144 7.87341ZM92.1862 10.245L88.8627 18H92.7327L96.2277 9.675V7.5H87.2427V11.775H90.1677V10.245H92.1862ZM82.5332 18V10.17H80.7332V7.5H86.0732V18H82.5332ZM73.7889 10.035C73.2789 9.77502 72.7089 9.64502 72.0789 9.64502C71.4089 9.64502 70.7989 9.80002 70.2489 10.11C70.0129 10.2455 69.7979 10.4106 69.6039 10.6053V9.79502H66.3789V18H69.7689V14.145C69.7689 13.735 69.8239 13.41 69.9339 13.17C70.0539 12.93 70.2089 12.76 70.3989 12.66C70.5989 12.55 70.8139 12.495 71.0439 12.495C71.3539 12.495 71.5989 12.605 71.7789 12.825C71.9589 13.035 72.0489 13.395 72.0489 13.905V18H75.4389V13.32C75.4389 12.46 75.2889 11.76 74.9889 11.22C74.6989 10.68 74.2989 10.285 73.7889 10.035ZM61.109 18.15C60.109 18.15 59.234 17.965 58.484 17.595C57.744 17.225 57.169 16.72 56.759 16.08C56.349 15.43 56.144 14.7 56.144 13.89C56.144 13.06 56.344 12.325 56.744 11.685C57.154 11.045 57.709 10.545 58.409 10.185C59.119 9.82502 59.914 9.64502 60.794 9.64502C61.604 9.64502 62.349 9.80502 63.029 10.125C63.719 10.445 64.269 10.92 64.679 11.55C65.099 12.18 65.309 12.96 65.309 13.89C65.309 14.01 65.304 14.145 65.294 14.295C65.284 14.435 65.274 14.565 65.264 14.685H59.5722C59.5995 14.7586 59.6318 14.8286 59.669 14.895C59.809 15.145 60.009 15.335 60.269 15.465C60.529 15.585 60.844 15.645 61.214 15.645C61.594 15.645 61.904 15.595 62.144 15.495C62.394 15.395 62.654 15.245 62.924 15.045L64.694 16.83C64.294 17.26 63.799 17.59 63.209 17.82C62.629 18.04 61.929 18.15 61.109 18.15ZM59.4988 13.05H62.1457C62.1157 12.9121 62.0702 12.7871 62.009 12.675C61.899 12.445 61.744 12.27 61.544 12.15C61.344 12.02 61.104 11.955 60.824 11.955C60.544 11.955 60.299 12.02 60.089 12.15C59.889 12.27 59.734 12.445 59.624 12.675C59.568 12.7871 59.5263 12.9121 59.4988 13.05ZM49.642 16.061V18H46.252V6.87H49.642V12.1749L51.997 9.795H56.002L52.612 13.3477L56.272 18H52.177L50.1884 15.4811L49.642 16.061ZM40.4209 18.15C39.4909 18.15 38.6659 17.97 37.9459 17.61C37.2359 17.24 36.6759 16.735 36.2659 16.095C35.8559 15.455 35.6509 14.72 35.6509 13.89C35.6509 13.06 35.8559 12.325 36.2659 11.685C36.6759 11.045 37.2359 10.545 37.9459 10.185C38.6659 9.82502 39.4909 9.64502 40.4209 9.64502C41.3509 9.64502 42.1759 9.82502 42.8959 10.185C43.6159 10.545 44.1759 11.045 44.5759 11.685C44.9859 12.325 45.1909 13.06 45.1909 13.89C45.1909 14.72 44.9859 15.455 44.5759 16.095C44.1759 16.735 43.6159 17.24 42.8959 17.61C42.1759 17.97 41.3509 18.15 40.4209 18.15ZM40.4209 15.51C40.6709 15.51 40.8959 15.45 41.0959 15.33C41.2959 15.21 41.4559 15.03 41.5759 14.79C41.6959 14.54 41.7559 14.24 41.7559 13.89C41.7559 13.53 41.6959 13.235 41.5759 13.005C41.4559 12.765 41.2959 12.585 41.0959 12.465C40.8959 12.345 40.6709 12.285 40.4209 12.285C40.1709 12.285 39.9459 12.345 39.7459 12.465C39.5459 12.585 39.3859 12.765 39.2659 13.005C39.1459 13.235 39.0859 13.53 39.0859 13.89C39.0859 14.24 39.1459 14.54 39.2659 14.79C39.3859 15.03 39.5459 15.21 39.7459 15.33C39.9459 15.45 40.1709 15.51 40.4209 15.51ZM29.4769 10.245V18H33.0169V10.245H36.0919V7.5H26.4019V10.245H29.4769Z" fill="black"/>
</svg>
